<!-- Generated by IcoMoon.io -->
<svg version="1.1" xmlns="http://www.w3.org/2000/svg" width="1024" height="1024" viewBox="0 0 1024 1024">
<title></title>
<g id="icomoon-ignore">
</g>
<path d="M263.626 457.408h-48.091c2.5 12.669 3.917 25.004 7.585 37.423s10.335 23.17 14.086 35.172c0.953 3.004 1.502 6.46 1.502 10.043s-0.549 7.039-1.567 10.287l0.066-0.243c-12.919 39.173-26.754 78.096-40.257 117.186-1.167 3.334-2.084 6.751-3.834 12.335 9.835 0 18.336 0 26.838 0 18.503 0 27.421 11.502 23.587 29.505-1.584 7.168-3.334 14.252-5.251 22.254 6.918 3 13.586 5.751 20.087 8.918 15.753 7.668 18.586 20.42 7.668 34.172-3.751 4.667-7.585 9.252-11.835 14.419l6.834 6.001c8.457 7.194 13.835 17.788 14.002 29.643v0.029c1.443 15.782 4.39 30.283 8.737 44.164l-0.402-1.49c1.619 7.307 8.042 12.691 15.724 12.691 1.191 0 2.352-0.129 3.469-0.375l-0.107 0.020c17.155-1.25 32.96-3.705 48.315-7.327l-2.058 0.409c62.49-17.843 116.211-49.478 159.805-91.539l-0.112 0.108c14.509-12.745 23.617-31.337 23.617-52.056 0-0.716-0.011-1.43-0.032-2.141l0.003 0.104c-0.107-2.862-0.168-6.223-0.168-9.598 0-7.534 0.303-14.997 0.897-22.378l-0.063 0.972c0.75-11.585 7.251-18.336 16.169-17.753s14.002 7.335 14.002 18.586c0 17.67 0 35.339-1 52.925-0.599 6.2-2.442 11.858-5.278 16.882l0.11-0.212c-17.053 29.271-40.268 53.205-68 70.601l-0.845 0.494c-21.253 14.252-43.924 26.338-66.011 39.423-2.31 1.121-4.116 2.981-5.14 5.267l-0.027 0.068h28.505l456.074 1.334c0.208-0.003 0.454-0.005 0.701-0.005 4.634 0 9.133 0.579 13.428 1.669l-0.376-0.081c5.701 0.831 10.030 5.687 10.030 11.553 0 0.898-0.101 1.772-0.293 2.611l0.015-0.078c-2.221 5.656-6.003 10.297-10.815 13.52l-0.104 0.065c-2.667 2-7.751 1.167-11.669 1.167l-769.125-2.417c-3.917 0-9.001 0.5-11.585-1.667-4.707-3.488-8.254-8.301-10.111-13.886l-0.058-0.2c-1.334-7.251 4.251-12.335 11.585-14.002 2.736-0.469 5.888-0.737 9.103-0.737 0.99 0 1.975 0.025 2.953 0.076l-0.137-0.006h112.518c-3.084-19.003-5.918-37.923-9.335-56.676-0.5-2.75-3.584-5.334-5.834-7.501s-5.751-4.584-8.335-6.918c-14.669-11.335-15.419-20.753-4.001-35.089 2.25-2.75 4.334-5.584 6.834-8.918-9.752-6.251-25.004-6.084-25.838-19.92 0.392-12.022 1.981-23.468 4.653-34.49l-0.236 1.151c-7.835-0.667-16.003-1.5-24.087-2-16.669-1-23.587-7.835-22.504-25.004 0.528-10.92 2.41-21.2 5.486-30.951l-0.235 0.863c11.669-35.672 24.337-70.762 36.173-105.767 0.831-2.258 1.311-4.865 1.311-7.585s-0.481-5.327-1.362-7.742l0.050 0.157c-52.175-112.102 5.084-245.040 91.682-309.467 56.702-42.355 126.405-70.358 202.19-77.393l1.593-0.119c18.503-1.917 37.173-2.584 55.842-2.834 20.253 0 28.588 8.335 28.921 28.421 0 23.671 0.5 47.341 1.167 71.012 0.064 0.761 0.1 1.646 0.1 2.54 0 9.586-4.181 18.195-10.819 24.102l-0.032 0.028c-13.919 12.835-26.754 27.004-41.090 39.34-5.971 5.157-13.502 8.662-21.795 9.73l-0.208 0.022c-17.92 1.584-36.006 0.75-54.009 1.084-0.022 0-0.049 0-0.075 0-10.142 0-19.072-5.191-24.278-13.061l-0.067-0.108c-3.504-6.647-10.368-11.102-18.271-11.102-1.982 0-3.898 0.28-5.711 0.802l0.145-0.036c-1.832 0.297-3.943 0.466-6.095 0.466-16.879 0-31.322-10.432-37.234-25.2l-0.095-0.27c-2.217-5.014-3.507-10.861-3.507-17.010 0-13.224 5.969-25.055 15.36-32.944l0.066-0.054c7.357-6.192 16.937-9.955 27.396-9.955 23.568 0 42.674 19.106 42.674 42.674 0 3.956-0.538 7.786-1.546 11.422l0.071-0.3c-0.106 0.811-0.166 1.749-0.166 2.701 0 10.738 7.691 19.679 17.865 21.615l0.137 0.022c14.002 0 28.005 0 41.673-0.75 4.013-0.606 7.527-2.4 10.259-5.008l-0.007 0.007c8.835-8.335 16.669-16.669 26.004-25.004 4.746-4.031 7.737-10.004 7.737-16.675 0-0.909-0.055-1.804-0.163-2.684l0.011 0.106c-0.75-18.92-0.583-37.923-0.917-56.926-0.166-0.999-0.456-1.895-0.859-2.726l0.026 0.059c-83.68-17.169-247.874 57.676-285.63 131.938 10.252 0 19.42 0 28.505 0 3.015-0.965 5.449-3.019 6.887-5.688l0.031-0.063c7.334-13.541 21.435-22.582 37.648-22.582 3.108 0 6.138 0.332 9.057 0.963l-0.281-0.051c18.12 3.898 31.864 18.742 34.069 37.134l0.020 0.206c0.077 0.973 0.12 2.107 0.12 3.251 0 17.798-10.565 33.128-25.766 40.060l-0.275 0.112c-3.345 1.623-5.803 4.628-6.651 8.252l-0.016 0.083c-0.5 31.588 0 63.26 0 96.099 2.182 0.403 4.739 0.673 7.344 0.748l0.074 0.002 75.929 1.084c14.002 0 19.503 5.001 19.837 19.086 0.5 18.003 0.5 36.006 0.75 54.009 0 0.583 0.583 1.167 1.25 2.5l10.335 0.667c0-9.585 0-18.42 0-27.254 0-11.002-0.667-22.004-1.5-33.339-0.039-0.523-0.061-1.133-0.061-1.748 0-8.252 3.997-15.57 10.161-20.124l0.068-0.048c10.168-8.335 20.253-16.669 29.671-25.004 3.118-2.967 5.199-6.997 5.661-11.507l0.007-0.079c0.583-17.336 0-34.672 0-52.008 0-6.751-2.417-8.918-8.335-8.335-1.545 0.143-3.341 0.224-5.156 0.224-3.448 0-6.828-0.294-10.116-0.857l0.352 0.050c-13.919-3.167-21.837 5.334-29.421 14.419-1.024 1.647-1.63 3.646-1.63 5.787 0 0.904 0.108 1.783 0.312 2.624l-0.016-0.076c0.571 2.621 0.899 5.632 0.899 8.719 0 23.614-19.143 42.757-42.757 42.757-21.929 0-40.002-16.508-42.47-37.775l-0.019-0.199c-0.304-1.902-0.477-4.094-0.477-6.328 0-21.698 16.387-39.569 37.46-41.913l0.19-0.017c1.431-0.174 3.088-0.274 4.769-0.274 4.952 0 9.702 0.864 14.108 2.449l-0.291-0.091c1.447 0.829 3.18 1.318 5.028 1.318 3.614 0 6.791-1.87 8.616-4.695l0.024-0.040c8.332-11.47 21.701-18.843 36.792-18.843 3.503 0 6.913 0.397 10.187 1.149l-0.305-0.059c10.835 1.584 22.004 0.667 33.339 1.417 0.469-0.043 1.014-0.068 1.565-0.068 10.035 0 18.17 8.135 18.17 18.17 0 0.817-0.054 1.622-0.158 2.41l0.010-0.093c0 26.671 0.833 53.342 0 80.013-0.913 7.039-4.118 13.199-8.831 17.832l-0.004 0.004c-9.001 9.168-20.003 16.669-29.338 25.504-3.683 3.68-6.129 8.597-6.66 14.075l-0.007 0.094c-0.75 16.669 0 33.839 0 53.092 15.086 0 27.671 0 40.173 0 0.236-0.007 0.515-0.011 0.794-0.011 8.446 0 16.037 3.663 21.27 9.486l0.023 0.026c28.505 29.421 57.343 58.343 86.181 87.681 6.887 6.428 11.196 15.541 11.252 25.661v0.010c0 23.337 1.334 46.674 1.75 70.011-0.015 0.244-0.023 0.528-0.023 0.815 0 5.159 2.757 9.673 6.877 12.151l0.064 0.036c11.555 7.535 19.087 20.399 19.087 35.022 0 5.015-0.886 9.823-2.509 14.276l0.092-0.29c-6.002 16.996-21.927 28.955-40.646 28.955-0.596 0-1.188-0.012-1.778-0.036l0.084 0.003c-19.205-0.856-35.035-14.333-39.446-32.297l-0.061-0.292c-0.854-3.151-1.345-6.77-1.345-10.503 0-15.95 8.961-29.808 22.124-36.813l0.225-0.109c4.15-1.772 7.006-5.818 7.006-10.531 0-0.696-0.062-1.378-0.182-2.040l0.010 0.069c-0.917-21.337-1.084-42.674-2.25-64.010-0.363-4.361-2.201-8.234-5.008-11.176l0.007 0.007c-25.004-26.171-50.842-51.925-76.096-78.013-4.599-5.13-11.246-8.342-18.644-8.342-0.214 0-0.428 0.003-0.641 0.008l0.032-0.001c-64.010-1-128.021-2.75-191.698-3.667-0.59 0.048-1.276 0.075-1.969 0.075-10.781 0-20.029-6.56-23.971-15.906l-0.064-0.171c-7.918-16.169-16.669-32.089-25.504-47.508-5.38-8.198-8.582-18.245-8.582-29.040 0-1.807 0.090-3.594 0.265-5.355l-0.018 0.222c0.25-6.584-0.333-13.252-0.333-21.587zM414.484 502.748h-79.513c-20.337 0-25.671-5.334-25.004-25.421 0.5-34.339 1.334-68.678 1.75-103.017 0-0.025 0-0.055 0-0.084 0-3.826-1.251-7.359-3.367-10.214l0.033 0.046c-4.879-6.080-9.897-11.52-15.261-16.599l-0.075-0.070c-2.015-1.884-4.626-3.153-7.522-3.495l-0.063-0.006c-13.252-0.75-26.588-1.334-39.923-1.334-3.202 0.116-6.015 1.682-7.816 4.058l-0.019 0.026c-11.575 23.565-19.123 51.073-20.971 80.13l-0.032 0.634c19.67 0 38.256 0 56.843 0 15.669 0 23.254 6.918 21.17 22.087-0.759 4.739-1.193 10.203-1.193 15.768 0 23.107 7.481 44.467 20.152 61.79l-0.206-0.295c2.126 3.028 4.003 6.488 5.464 10.159l0.12 0.343c1.763 5.547 6.867 9.495 12.894 9.495 0.508 0 1.009-0.028 1.502-0.083l-0.061 0.005c23.004 0 46.007 0.667 68.928 1.084 3.917 0 7.751 0 11.919 0zM643.605 791.796c-0.917-7.001-4.167-11.752-11.752-12.169-0.329-0.033-0.71-0.052-1.097-0.052-6.444 0-11.669 5.224-11.669 11.669 0 0.194 0.005 0.387 0.014 0.579l-0.001-0.027c-0.011 0.186-0.017 0.404-0.017 0.623 0 6.168 5 11.168 11.168 11.168 0.329 0 0.654-0.014 0.976-0.042l-0.042 0.003c7.418 0.083 11.252-4.417 12.419-11.752zM417.568 399.398c-1.167-7.001-4.584-11.669-12.252-11.752-0.211-0.014-0.457-0.022-0.705-0.022-6.352 0-11.502 5.15-11.502 11.502 0 0.33 0.014 0.657 0.041 0.981l-0.003-0.042c-0.002 0.074-0.003 0.16-0.003 0.248 0 6.122 4.963 11.085 11.085 11.085 0.471 0 0.935-0.029 1.391-0.086l-0.054 0.006c7.501-0.083 11.168-4.667 12.002-11.919zM330.47 339.639c0.225 0.015 0.487 0.023 0.751 0.023 6.624 0 12.004-5.329 12.084-11.934v-0.008c0.016-0.226 0.025-0.49 0.025-0.756 0-6.26-5.075-11.335-11.335-11.335-0.126 0-0.252 0.002-0.377 0.006h0.018c-0.279-0.024-0.605-0.037-0.933-0.037-6.444 0-11.669 5.224-11.669 11.669 0 0.218 0.006 0.435 0.018 0.651l-0.001-0.030c-0.003 0.099-0.005 0.216-0.005 0.333 0 6.306 5.112 11.419 11.419 11.419 0.002 0 0.003 0 0.005 0v0zM413.817 256.708c0.023-0.279 0.036-0.605 0.036-0.933 0-6.499-5.094-11.807-11.507-12.151l-0.031-0.001c-0.326-0.032-0.704-0.050-1.087-0.050-6.49 0-11.752 5.262-11.752 11.752 0 0.106 0.001 0.211 0.004 0.316v-0.016c-0.014 0.209-0.022 0.453-0.022 0.7 0 6.168 5 11.168 11.168 11.168 0.301 0 0.599-0.012 0.894-0.035l-0.039 0.002c0.131 0.005 0.286 0.008 0.441 0.008 6.091 0 11.077-4.735 11.476-10.725l0.002-0.035z"></path>
<path d="M773.459 356.975c13.002-10.085 24.504-18.67 35.422-27.838 2.53-2.295 4.182-5.519 4.415-9.128l0.002-0.040c0-26.671-0.75-53.342-1.834-80.013-0.845-3.737-3.040-6.856-6.033-8.886l-0.051-0.033c-11.48-7.786-18.924-20.773-18.924-35.498 0-23.614 19.143-42.757 42.757-42.757 20.363 0 37.401 14.234 41.707 33.295l0.054 0.286c0.737 2.908 1.16 6.246 1.16 9.683 0 15.565-8.672 29.104-21.447 36.050l-0.216 0.107c-5.027 2.095-8.497 6.968-8.497 12.653 0 0.741 0.059 1.469 0.173 2.178l-0.010-0.078c0.917 25.671 0.917 51.342 1.834 77.013 0.086 0.834 0.135 1.803 0.135 2.782 0 9.567-4.685 18.039-11.887 23.247l-0.084 0.058c-17.169 13.169-33.922 26.921-51.342 39.84-4.054 2.692-6.69 7.238-6.69 12.4 0 0.624 0.038 1.238 0.113 1.842l-0.007-0.072c1 35.006 1.417 70.011 2.584 105.017 0.141 1.267 0.222 2.735 0.222 4.222 0 11.824-5.087 22.459-13.191 29.838l-0.032 0.029c-3.793 4.347-7.63 8.316-11.659 12.083l-0.093 0.086c-14.752 10.668-17.253 25.004-15.419 41.673 2.167 20.17 2.25 40.59 3.917 60.843 0.742 4.393 3.113 8.129 6.458 10.637l0.043 0.031c12.614 7.608 20.919 21.238 20.919 36.807 0 23.66-19.18 42.84-42.84 42.84-18.942 0-35.012-12.293-40.669-29.336l-0.087-0.303c-1.152-3.723-1.816-8.002-1.816-12.437 0-15.944 8.576-29.884 21.367-37.46l0.202-0.111c2.981-1.982 5.021-5.177 5.413-8.865l0.005-0.053c-1.084-28.255-3.251-56.593-4.001-84.847-0.002-0.128-0.003-0.279-0.003-0.431 0-7.247 2.312-13.953 6.239-19.422l-0.068 0.1c9.001-11.502 20.003-21.337 29.755-32.339 2.642-3.041 4.335-6.969 4.582-11.285l0.002-0.050q-2.25-116.686-5.001-233.955c0-2.584-0.583-5.168-1.084-9.168-16.003 9.752-31.255 18.586-45.924 28.255-6.584 4.334-3.167 23.671 4.417 28.421 13.142 7.485 21.861 21.4 21.861 37.352 0 23.66-19.18 42.84-42.84 42.84s-42.84-19.18-42.84-42.84c0-15.043 7.753-28.274 19.481-35.917l0.165-0.101c4.449-2.006 7.49-6.402 7.49-11.508 0-1.003-0.117-1.978-0.339-2.913l0.017 0.085c-0.583-3.667 0-7.335-1-11.002-0.363-1.639-0.571-3.522-0.571-5.453 0-10.518 6.166-19.596 15.080-23.817l0.16-0.068c22.17-13.002 43.84-26.671 65.844-39.84 17.253-10.418 29.088-3.667 29.588 16.669 0.75 32.255 1.417 64.594 2.167 96.932 0.083 3.167 0.417 6.418 0.75 11.669zM737.62 705.782c0.001-0.050 0.001-0.108 0.001-0.167 0-6.554-5.289-11.872-11.832-11.918h-0.004c-0.302-0.028-0.654-0.044-1.009-0.044-6.444 0-11.669 5.224-11.669 11.669 0 0.162 0.003 0.323 0.010 0.483l-0.001-0.023c-0.011 0.184-0.017 0.399-0.017 0.616 0 6.168 5 11.168 11.168 11.168 0.299 0 0.596-0.012 0.889-0.035l-0.039 0.002c7.501 0.083 11.335-4.417 12.502-11.752zM689.529 361.225c-1.167-7.001-4.667-11.585-12.335-11.585-0.142-0.006-0.309-0.010-0.477-0.010-6.398 0-11.585 5.187-11.585 11.585 0 0.414 0.022 0.824 0.064 1.227l-0.004-0.050c0 0.002 0 0.004 0 0.007 0 6.168 5 11.168 11.168 11.168 0.5 0 0.991-0.033 1.474-0.096l-0.057 0.006c0.029 0 0.064 0 0.098 0 6.444 0 11.669-5.224 11.669-11.669 0-0.205-0.005-0.409-0.016-0.612l0.001 0.028zM829.218 207.617c0.2 0.013 0.434 0.020 0.67 0.020 6.306 0 11.419-5.112 11.419-11.419 0-0.095-0.001-0.189-0.003-0.284v0.014c0.065-0.452 0.103-0.975 0.103-1.506 0-6.122-4.963-11.085-11.085-11.085-0.124 0-0.248 0.002-0.371 0.006h0.018c-0.112-0.004-0.243-0.006-0.375-0.006-6.632 0-12.008 5.376-12.008 12.008 0 6.5 5.164 11.793 11.614 12.001h0.019z"></path>
<path d="M660.441 586.262c0-19.336 0-42.59 0-65.761 0-3.084-4.667-6.584-7.835-8.835-11.854-7.788-19.572-21.023-19.572-36.061 0-20.017 13.675-36.84 32.192-41.636l0.299-0.066c2.942-0.717 6.32-1.128 9.793-1.128 17.253 0 32.138 10.14 39.020 24.785l0.111 0.263c2.587 5.229 4.101 11.384 4.101 17.894 0 14.257-7.261 26.818-18.287 34.187l-0.149 0.094c-5.226 3.113-8.672 8.734-8.672 15.159 0 1.213 0.123 2.397 0.356 3.54l-0.019-0.113c1.584 30.255 2.5 60.593 3.417 90.931 0.045 0.625 0.071 1.355 0.071 2.091 0 4.459-0.946 8.697-2.649 12.524l0.078-0.196c-6.334 12.085-19.336 12.169-30.755 0.583q-35.172-35.506-70.095-71.178c-11.252-11.419-23.087-22.254-33.339-34.422-5.037-5.654-8.375-12.92-9.156-20.935l-0.012-0.152c-0.833-54.926-0.833-110.018 0-164.944 0.65-8.234 3.916-15.601 8.956-21.381l-0.038 0.044c10.585-12.752 23.087-24.004 34.172-36.339 2.771-3.276 4.509-7.505 4.667-12.135l0.001-0.033c0-24.004-1.417-47.924-2.084-71.928 0-4.334-1.25-9.668 0.833-12.752 3.167-4.751 8.335-10.752 13.085-11.085s10.335 5.168 14.502 9.168c1.917 1.917 1.75 6.334 1.834 9.585 1 27.338 1.584 54.676 2.584 81.93 0.043 0.613 0.068 1.329 0.068 2.051 0 8.75-3.635 16.652-9.477 22.277l-0.010 0.009c-10.585 10.585-20.837 21.587-31.505 32.172-4.733 4.315-7.691 10.507-7.691 17.389 0 0.363 0.008 0.723 0.024 1.082l-0.002-0.051c0.417 48.341 0 96.682 0.5 145.024 0.125 6.016 2.444 11.467 6.186 15.607l-0.019-0.021c24.754 25.504 51.092 50.342 74.512 72.762zM687.612 475.661c-1-6.918-4.334-11.669-11.919-12.002-0.281-0.024-0.608-0.038-0.938-0.038-6.398 0-11.585 5.187-11.585 11.585 0 0.248 0.008 0.494 0.023 0.738l-0.002-0.033c-0.008 0.159-0.013 0.345-0.013 0.532 0 6.122 4.963 11.085 11.085 11.085 0.298 0 0.593-0.012 0.885-0.035l-0.039 0.002c7.668 0 11.419-4.584 12.502-11.835z"></path>
<path d="M531.92 961.99c2.798 0.643 6.109 1.118 9.492 1.325l0.177 0.009c13.336 0 26.588 0 39.923 0 11.919 0 18.586 5.751 18.503 14.919s-6.001 14.752-17.67 14.919q-70.428 1-140.773 1.167c-0.584 0.080-1.258 0.125-1.944 0.125-8.378 0-15.169-6.791-15.169-15.169s6.791-15.169 15.169-15.169c0.685 0 1.36 0.045 2.021 0.133l-0.077-0.008c17.336-0.667 34.589 0 51.925-0.667 3.146-0.624 5.941-1.753 8.44-3.312l-0.106 0.061c-2.394-1.497-5.188-2.627-8.175-3.224l-0.16-0.027c-27.338 0-54.592 0-81.93 0-4.001 0-8.918 0.917-11.752-1-5.024-3.099-8.937-7.575-11.264-12.902l-0.071-0.183c-0.231-0.878-0.364-1.886-0.364-2.925 0-6.065 4.53-11.071 10.39-11.822l0.059-0.006c2.955-0.855 6.349-1.347 9.858-1.347 0.344 0 0.686 0.005 1.028 0.014l-0.050-0.001q106.934 0 213.785 0.833c0.553-0.016 1.205-0.025 1.858-0.025 3.224 0 6.397 0.221 9.504 0.649l-0.36-0.041c6.901 0.735 12.242 6.481 12.335 13.493v0.009c0.039 0.38 0.062 0.82 0.062 1.266 0 6.615-4.94 12.076-11.332 12.896l-0.065 0.007c-4.003 0.699-8.612 1.099-13.315 1.099-0.564 0-1.127-0.006-1.688-0.017l0.084 0.001c-25.921 0-51.925 0-77.929 0-3.334 0-6.751 0.583-10.168 0.833z"></path>
<path d="M836.219 664.275c-18.904-0.522-34.702-13.236-39.846-30.536l-0.077-0.303c-1.169-3.666-1.843-7.883-1.843-12.258 0-14.938 7.86-28.041 19.67-35.398l0.176-0.102c4.651-2.248 7.802-6.929 7.802-12.346 0-0.673-0.049-1.334-0.142-1.98l0.009 0.074q-0.75-27.921 0-55.926c0.056-0.454 0.088-0.98 0.088-1.513 0-5.218-3.074-9.718-7.51-11.789l-0.080-0.034c-13.124-7.19-21.874-20.908-21.874-36.669 0-8.534 2.565-16.469 6.967-23.076l-0.096 0.153c7.756-11.569 20.78-19.083 35.56-19.083 23.568 0 42.674 19.106 42.674 42.674 0 8.962-2.763 17.278-7.482 24.145l0.094-0.144c-2.061 3.461-4.874 6.274-8.227 8.275l-0.107 0.059c-9.752 4.417-10.502 11.835-10.002 21.17 0.75 16.669 0.833 33.922 0.5 50.925-0.057 0.49-0.089 1.058-0.089 1.634 0 5.905 3.393 11.018 8.336 13.495l0.087 0.040c11.968 7.463 19.814 20.555 19.814 35.48 0 4.72-0.785 9.258-2.231 13.488l0.087-0.293c-5.705 17.465-21.848 29.86-40.887 29.86-0.482 0-0.961-0.008-1.439-0.024l0.070 0.002zM837.636 609.599c-6.628 0-12.002 5.373-12.002 12.002s5.373 12.002 12.002 12.002v0c6.628 0 12.002-5.373 12.002-12.002s-5.373-12.002-12.002-12.002v0zM834.719 476.244c8.335 0 12.919-3.501 12.669-10.418 0.024-0.276 0.038-0.598 0.038-0.923 0-6.26-5.075-11.335-11.335-11.335-0.13 0-0.26 0.002-0.39 0.007l0.019-0.001c-0.308-0.029-0.666-0.046-1.028-0.046-6.352 0-11.502 5.15-11.502 11.502 0 0.28 0.010 0.558 0.030 0.833l-0.002-0.037c0.5 7.001 3.751 11.419 11.502 10.502z"></path>
<path d="M335.721 954.239c-8.335 0-16.669 0-25.004 0-0.351 0.028-0.759 0.044-1.171 0.044-8.431 0-15.29-6.73-15.498-15.111v-0.019c0.136-8.273 6.875-14.927 15.167-14.927 0.177 0 0.352 0.003 0.527 0.009l-0.025-0.001c17.253-0.5 34.589-0.5 51.842 0 0.227-0.012 0.492-0.019 0.759-0.019 8.378 0 15.169 6.791 15.169 15.169 0 0.183-0.003 0.364-0.010 0.545l0.001-0.026c0 8.335-6.834 14.002-17.169 14.336-8.335 0-16.669 0-25.004 0z"></path>
<path d="M692.863 956.239c-7.668 0-15.336 0-22.92 0-0.124 0.004-0.27 0.006-0.417 0.006-7.641 0-13.836-6.194-13.836-13.836 0-0.002 0-0.004 0-0.007v0c-0.116-0.652-0.182-1.403-0.182-2.169 0-7.098 5.688-12.868 12.755-13h0.012c7.568-0.418 16.425-0.656 25.337-0.656s17.769 0.238 26.565 0.709l-1.227-0.052c6.983 0.252 12.548 5.973 12.548 12.994 0 0.828-0.077 1.638-0.225 2.422l0.013-0.081c-0.227 7.556-6.406 13.595-13.996 13.595-0.178 0-0.355-0.003-0.531-0.010l0.025 0.001c-8.335 0.417-16.003 0.083-23.921 0.083z"></path>
<path d="M75.012 908.981c-15.252-0.833-22.42-5.668-22.254-15.586s8.835-15.836 23.671-15.169c2.584 0 5.251 0 7.835 0.833 7.717 0.527 13.778 6.916 13.778 14.72 0 0.305-0.009 0.607-0.027 0.907l0.002-0.041c-0.395 8.015-6.991 14.365-15.069 14.365-0.329 0-0.655-0.011-0.978-0.031l0.044 0.002c-2.5 0.167-4.834 0-7.001 0z"></path>
<path d="M954.155 912.232c-0.378 0.016-0.821 0.026-1.267 0.026-4.071 0-7.961-0.774-11.531-2.183l0.213 0.074c-4.084-2.834-9.001-8.335-9.001-12.252 1.005-5.282 4.479-9.581 9.151-11.711l0.101-0.041c4.145-1.154 8.904-1.818 13.818-1.818 2.741 0 5.434 0.206 8.064 0.605l-0.295-0.037c0.068-0.001 0.149-0.002 0.229-0.002 6.951 0 12.585 5.635 12.585 12.585 0 0.441-0.023 0.877-0.067 1.306l0.004-0.054c-0.417 8.335-6.334 11.919-13.919 13.002-1.246 0.086-2.701 0.136-4.167 0.136s-2.921-0.049-4.363-0.146l0.195 0.011z"></path>
<path d="M694.53 159.443c0.359-0.031 0.777-0.049 1.199-0.049 8.101 0 14.669 6.568 14.669 14.669 0 0.34-0.012 0.677-0.034 1.011l0.002-0.045c0.016 0.277 0.026 0.602 0.026 0.928 0 9.206-7.463 16.669-16.669 16.669-0.214 0-0.428-0.004-0.64-0.012l0.031 0.001c-0.002 0-0.003 0-0.005 0-9.060 0-16.431-7.227-16.664-16.231v-0.022c-0.417-10.335 7.001-16.753 18.086-16.919zM695.447 164.61h-3.834c-2.25 3.417-6.501 7.168-6.168 10.335 1.317 3.959 4.376 7.017 8.243 8.308l0.092 0.027c2.084 0.5 7.835-4.834 7.751-7.335-0.083-3.834-3.834-7.585-6.084-11.335z"></path>
<path d="M1001.246 884.061c6.787 0.034 12.275 5.544 12.275 12.335 0 0.264-0.008 0.526-0.025 0.786l0.002-0.036c0.010 0.18 0.015 0.391 0.015 0.603 0 6.582-5.336 11.919-11.919 11.919-0.24 0-0.478-0.007-0.715-0.021l0.033 0.002c-0.309 0.027-0.67 0.042-1.033 0.042-7.089 0-12.835-5.747-12.835-12.835s5.747-12.835 12.835-12.835c0.364 0 0.724 0.015 1.080 0.045l-0.047-0.003z"></path>
<path d="M44.507 895.146c0.003 0.104 0.005 0.226 0.005 0.348 0 6.352-5.15 11.502-11.502 11.502-0.207 0-0.413-0.005-0.617-0.016l0.029 0.001c-0.452 0.062-0.973 0.098-1.503 0.098-6.398 0-11.585-5.187-11.585-11.585 0-0.093 0.001-0.186 0.003-0.278v0.014c-0.041-0.376-0.064-0.812-0.064-1.254 0-6.767 5.485-12.252 12.252-12.252 0.111 0 0.221 0.001 0.331 0.004h-0.016c0.060-0.001 0.13-0.002 0.2-0.002 6.905 0 12.502 5.597 12.502 12.502 0 0.323-0.012 0.644-0.036 0.961l0.003-0.042z"></path>
<path d="M966.824 298.799c0.032 0.325 0.050 0.702 0.050 1.084 0 6.444-5.224 11.669-11.669 11.669-0.018 0-0.035 0-0.053 0h0.003c-0.075 0.002-0.164 0.003-0.253 0.003-6.859 0-12.419-5.56-12.419-12.419 0-0.089 0.001-0.177 0.003-0.266v0.013c-0.001-0.043-0.001-0.093-0.001-0.144 0-6.26 5.075-11.335 11.335-11.335 0.411 0 0.818 0.022 1.217 0.065l-0.050-0.004c0.413-0.057 0.89-0.090 1.374-0.090 5.8 0 10.502 4.702 10.502 10.502 0 0.325-0.015 0.647-0.044 0.965l0.003-0.041z"></path>
<path d="M126.521 27.504c0.41-0.048 0.885-0.075 1.367-0.075 6.905 0 12.502 5.597 12.502 12.502 0 0.32-0.012 0.637-0.036 0.95l0.003-0.042c0.041 0.377 0.064 0.814 0.064 1.257 0 6.813-5.523 12.335-12.335 12.335-0.14 0-0.279-0.002-0.418-0.007l0.020 0.001c-0.45 0.058-0.972 0.091-1.5 0.091-6.832 0-12.375-5.517-12.418-12.339v-0.004c-0.061-0.476-0.096-1.027-0.096-1.586 0-7.144 5.724-12.95 12.836-13.083h0.012zM126.937 32.755c-2.75 3.334-6.418 6.334-5.918 7.418 1.916 2.658 4.176 4.919 6.748 6.775l0.087 0.060c1.917-2.084 5.418-4.334 5.168-6.168s-3.334-4.667-6.084-8.085z"></path>
<path d="M968.074 93.265l-8.835 7.418-2.334-1.417 4.751-10.752-9.585-6.001 0.583-2.334 11.085 0.833 3.084-11.252h2.167l3.084 11.085 11.419-0.833 0.917 2.25-9.668 6.168 4.751 10.668-2.25 1.75z"></path>
<path d="M533.42 91.015l3.084-11.085h2.25l3 10.918 10.918-0.833 1 2-9.502 6.668 4.667 10.168-1.834 1.834-9.252-7.168-9.001 7.251-2.25-1.75 5.001-10.502-12.169-7.501z"></path>
<path d="M63.51 179.029c1.084-3.584 2.084-7.001 3.167-10.418 0.632-0.416 1.369-0.833 2.135-1.2l0.116-0.050 2.917 11.502 10.835-0.75 1.084 1.917-9.502 6.668 4.667 10.168-1.834 1.834-9.252-7.001-9.001 7.335-2.25-1.75 4.917-10.502-12.085-7.501z"></path>
<path d="M240.789 164.443c0.212 0.853 0.334 1.832 0.334 2.84 0 6.767-5.485 12.252-12.252 12.252s-12.252-5.485-12.252-12.252c0-0.502 0.030-0.996 0.089-1.482l-0.006 0.059c-0.001-0.072-0.002-0.156-0.002-0.241 0-6.907 5.061-12.631 11.676-13.668l0.078-0.010c6.823 0.047 12.336 5.589 12.336 12.418 0 0.029 0 0.059 0 0.088v-0.005zM236.872 164.443c-4.001-2.25-6.251-4.501-8.335-4.501s-3.584 2.75-5.334 4.334c2.25 1.834 4.167 4.501 6.751 5.334 1.084 0.417 3.417-2.5 6.918-5.168z"></path>
<path d="M132.688 300.632c-0.022 0-0.047 0-0.072 0-5.984 0-10.835-4.851-10.835-10.835 0-0.441 0.026-0.875 0.077-1.302l-0.005 0.052c0.227-6.869 5.784-12.368 12.656-12.502h0.013c6.398 0.178 11.516 5.407 11.516 11.831 0 0.207-0.005 0.412-0.016 0.616l0.001-0.029c0.001 0.044 0.001 0.096 0.001 0.148 0 6.675-5.411 12.085-12.085 12.085-0.441 0-0.876-0.024-1.304-0.070l0.053 0.005zM134.189 281.212c-2.75 3-5.918 5.001-5.584 6.251 0.806 2.565 2.57 4.628 4.863 5.809l0.055 0.026c1.084 0.417 5.084-2.584 5.168-4.167s-2.25-4.251-4.501-7.918z"></path>
<path d="M791.796 46.924l-2 8.335h-9.585l-1.667-9.085 6.751-4.501z"></path>
</svg>
