<!-- Generated by IcoMoon.io -->
<svg version="1.1" xmlns="http://www.w3.org/2000/svg" width="1024" height="1024" viewBox="0 0 1024 1024">
<title></title>
<g id="icomoon-ignore">
</g>
<path d="M1024.1 896.088c-4.64 18.422-10.101 36.404-22.222 51.665-21.162 26.663-48.645 41.864-82.568 42.004-108.311 0.62-216.621 0.32-324.952 0.26-13.481 0-22.482-8.561-22.222-20.362s9.161-19.562 23.042-19.562q156.975 0 314.031 0c47.485 0 74.887-27.543 74.887-75.167v-328.872c-0.9-0.4-1.72-1.020-2-0.84-28.283 19.082-61.526 18.002-93.249 22.402-65.306 8.981-130.773 16.882-196.159 25.242-8.001 1.020-15.802 2.1-24.642 3.26 0 7.521 0 14.781 0 22.002 0 18.342-6.721 25.002-25.382 25.502-2 0-3.9 0.22-7.121 0.42 0 16.842 0.3 33.403-0.1 50.005-0.3 12.001-0.12 24.202-2.64 35.763-8.861 40.624-41.064 69.487-83.368 73.007-11.218 1.027-24.262 1.613-37.444 1.613s-26.225-0.586-39.108-1.732l1.665 0.12c-50.825-4.62-85.268-44.004-86.008-95.829-0.28-20.622 0-41.244 0-63.326-4.18 0-7.701 0.14-11.201 0-13.261-0.68-20.922-8.341-21.262-21.522-0.2-8.281 0-16.602 0-26.003-21.002-2.74-41.644-5.461-62.306-8.121-64.726-8.281-129.453-16.722-194.239-24.682-20.622-2.54-40.624-6.381-59.486-19.722v11.361q0 161.476 0 322.952c0 43.504 28.483 72.107 71.867 72.127q156.015 0 312.030 0c1.050-0.043 2.283-0.067 3.522-0.067 2.28 0 4.54 0.082 6.779 0.244l-0.3-0.017c9.87 1.332 17.4 9.703 17.4 19.832s-7.529 18.5-17.296 19.821l-0.103 0.011c-1.936 0.145-4.193 0.228-6.47 0.228-1.242 0-2.478-0.025-3.707-0.073l0.177 0.006h-309.11c-60.526 0.060-100.55-32.323-113.451-91.429-0.378-0.962-0.843-1.793-1.401-2.55l0.021 0.030v-600.059c0.549-0.754 1.016-1.62 1.356-2.546l0.024-0.074c13.081-59.386 52.885-91.389 113.471-91.389h147.334c0-36.204-0.18-71.147 0-106.010 0.22-36.004 26.003-61.806 62.006-61.846q188.018-0.18 376.037 0c36.184 0 61.786 25.522 62.006 61.566 0.2 31.663 0 63.346 0 95.009v11.281h12.001c47.345 0 94.689-0.48 142.014 0.16 42.004 0.58 74.207 19.682 94.509 56.586 6.281 11.401 8.961 24.782 13.301 37.264zM669.465 555.054c0.439 0.165 0.947 0.26 1.476 0.26 0.008 0 0.017 0 0.025 0h-0.001c87.569-11.161 175.137-22.202 262.646-33.643 29.903-3.9 50.305-27.523 50.425-57.706q0.3-76.507 0-153.015c-0.16-39.624-29.363-68.927-68.947-68.927q-403.019-0.16-806.079 0c-39.584 0-68.807 29.303-69.007 68.907q-0.3 76.007 0 152.015c0 32.203 21.442 55.285 53.365 59.146 44.004 5.301 88.009 11.141 131.833 16.782l130.833 16.802c0-4 0-7.201 0-10.461 1.26-56.326 45.064-100.43 101.47-101.33q55.485-0.86 110.991 0c45.906 1.004 84.18 32.519 95.411 75.024l0.158 0.703c2.98 11.461 3.66 23.522 5.401 35.443zM396.359 602.959h231.523c0-21.062 0.92-41.404-0.22-61.626-1.78-31.843-28.603-57.006-60.766-57.426q-54.945-0.74-109.891 0c-31.323 0.42-57.886 24.382-60.346 55.625-1.64 20.802-0.3 41.844-0.3 63.426zM532.052 644.063c0 16.262 0 31.523 0 46.805s-8.001 24.602-20.282 24.382c-12.001-0.2-19.622-9.481-19.682-24.002 0-15.562 0-31.103 0-46.965h-63.006c-0.2 3.46-0.54 6.401-0.52 9.321 0.22 20.962-0.86 42.004 1.12 62.866 2.54 26.743 24.262 46.004 51.205 46.985 20.602 0.76 41.284 0.66 62.006 0 24.162-0.72 47.205-16.822 50.005-39.804 3.1-26.003 0.72-52.825 0.72-79.648zM382.477 201.26h258.945v-46.485h-258.945zM603.599 74.607h-182.758v38.804h182.758zM379.637 74.007c-18.562 0-36.164 0-53.765 0-16.242 0-23.622 7.541-23.662 24.002-0.1 32.003 0 64.006 0 95.889 0 2.52 0.48 5.060 0.72 7.541h39.244v-10.261c0-18.302-0.16-36.624 0-54.925 0.18-14.421 8.001-22.002 22.382-22.322 4.88-0.1 9.761 0 15.021 0zM644.543 114.011h9.521c22.662 0.12 28.143 5.641 28.143 28.423 0 19.542 0 39.084 0 58.946h39.864c0-36.884 0.24-73.107-0.14-109.351-0.19-9.548-7.785-17.262-17.267-17.641l-0.035-0.001c-19.862-0.62-39.744-0.18-60.006-0.18z"></path>
<path d="M512.69 949.833c10.736 0.189 19.366 8.936 19.366 19.699 0 0.142-0.001 0.283-0.004 0.424v-0.021c0.017 0.311 0.027 0.675 0.027 1.042 0 11.047-8.955 20.002-20.002 20.002s-20.002-8.955-20.002-20.002c0-0.811 0.048-1.611 0.142-2.397l-0.009 0.095c0.487-10.515 9.13-18.856 19.722-18.856 0.267 0 0.533 0.005 0.798 0.016l-0.038-0.001z"></path>
</svg>
