<!-- Generated by IcoMoon.io -->
<svg version="1.1" xmlns="http://www.w3.org/2000/svg" width="1024" height="1024" viewBox="0 0 1024 1024">
<title></title>
<g id="icomoon-ignore">
</g>
<path d="M114 1024c-10.82-5.9-14.3-14.88-14.22-27.2 0.48-63.32 0.2-126.64 0.22-190 0-46 23.8-82.34 67.040-99.14 72.88-28.3 146-55.78 219.3-83.16 8-2.96 10.66-6.7 10.28-15-0.68-14.62-0.22-29.32-0.2-44 0-30.88-12.26-55.6-37.4-73.44-44.96-31.88-78-73.040-98.4-124.32-55.62-139.74 18.98-302.92 160.9-351.92 13.54-4.68 24-1.12 28.64 9.78 4.96 11.66-0.7 22.58-14.96 27.76-34.014 12.395-63.022 31.326-86.771 55.45l-0.029 0.030c-98.18 99.4-85.38 263.54 27.6 345.7 30.82 22.42 52 50.14 58.94 88.7h154.14c7-40.62 32.2-67.74 63.74-92.64 68.7-54.22 98.68-126.98 86.14-213.52-12.62-87.32-62.7-147.88-144.46-181.78-3.68-1.52-7.56-2.62-11.1-4.44-6.548-3.192-10.981-9.798-10.981-17.44 0-2.175 0.359-4.265 1.021-6.216l-0.040 0.136c2.336-8.097 9.68-13.92 18.384-13.92 1.15 0 2.277 0.102 3.371 0.297l-0.115-0.017c3.617 0.583 6.846 1.488 9.913 2.71l-0.313-0.11c110.42 39.7 184.38 150.78 176.72 267.7-5.6 85.4-43.24 154.12-112.34 204.9-20.82 15.3-36.74 34-39.78 59.74-2.64 22.38-1.46 45.22-1.22 67.86 0 2.4 4.74 5.74 8 6.94 67.46 25.72 135.060 51.080 202.52 76.78 11.78 4.5 23.78 9.040 34.5 15.5 33.18 20.14 50.96 49.6 50.96 89.12 0 64-0.26 128 0.2 192 0.1 12.3-3.4 21.3-14.22 27.18zM884 983.48c0-62.64 0-124.26 0-185.86-0.082-2.488-0.442-4.854-1.050-7.118l0.050 0.218c-5.8-25.22-23.040-39.64-46-48.38q-74.82-28.34-149.5-56.34c-19.52-7.36-39.020-14.76-59.42-22.48-0.2 4.14-0.46 7.040-0.46 10q0 40.98 0 82c0 9.84-3.34 17.84-12.96 21.56-9.1 3.52-16.9 0.62-23.44-6.36-2.82-3.020-6-5.76-9.42-9.16-3.78 6.84-6.32 12.72-10 17.78-5.36 7.44-5.34 14.9-3.34 23.46 7.46 32 14.38 64.26 21.48 96.42 6.22 28.16 12.4 56.32 18.56 84.28h147.88v-11.58c0-38.64 0-77.28 0-116 0-15.46 7.66-24.32 20.4-24.18 12.4 0.12 19.52 8.6 19.54 23.72 0 38.98 0 78 0 116.94v11.2zM267.76 983.3h147.64c0.78-2.96 1.48-5.18 2-7.46 12.28-55.88 23.44-112 37.36-167.5 4.92-19.6-4-31.9-13.86-48.34-2.78 3.84-4.56 6.7-6.74 9.22-6.64 7.72-14.8 11.62-24.82 7.62-10.56-4.22-12.96-13.24-12.84-23.68 0.2-18.64 0-37.3 0-56v-33.8l-54.5 20.64q-78 29.42-155.84 58.88c-31.76 12-46 33.12-46 67.020v173.5h87.66v-11.4c0-39.32 0-78.62 0-118 0-14.14 7.58-22.52 19.72-22.54s20 8.46 20.16 22.38c0.22 23.32 0 46.64 0 70zM567.42 983.64c-0.92-4.64-1.58-8.22-2.36-11.78-10.28-46.78-20.66-93.54-30.84-140.34-5.56-25.42-5.42-25.28-31.52-24.52-5.8 0.18-7.88 2.12-9.080 7.78-6.98 33.2-14.42 66.3-21.72 99.44l-15.3 69.42zM437.040 615.44h150v-30.74h-150zM512.14 693.44l-39.26 39.060c16 35.42 16 35.42 52.72 34.54 0.66 0 1.44 0.22 2 0 2.7-1.42 6.44-2.3 7.82-4.58 6-9.9 11.2-20.22 16.34-29.72zM537.98 656.42l49.080 48.62v-48.54zM437.24 656.18v48.28l48.44-48.28z"></path>
<path d="M520 0c4.56 4.92 10.7 9.14 13.28 14.94 3.9 8.74-1.68 18.86-10.48 23.020-2.479 1.22-5.395 1.933-8.478 1.933-6.675 0-12.569-3.344-16.099-8.448l-0.043-0.065c-2.359-3.151-3.777-7.124-3.777-11.429 0-5.492 2.309-10.445 6.008-13.942l0.009-0.009c2.263-2 4.733-3.969 7.301-5.81l0.279-0.19z"></path>
<path d="M492 320.76c0-29.72 10.3-45.3 37.74-56.92 22.7-9.6 34.88-32.84 29.44-56-5.119-21.682-24.307-37.57-47.205-37.57-1.343 0-2.673 0.055-3.988 0.162l0.173-0.011c-24.38 2.2-42.4 20.88-44.44 46-1.2 14.76-9.060 22.74-21.64 22-12-0.7-18.66-9.48-18.3-23.84 1.18-46.1 41.16-84.28 88.32-84.34s86.3 37.26 88 83.4c1.44 40-18.84 72.18-55.76 87.22-9.2 3.76-13.12 9.34-12.44 18.94 0.153 1.942 0.24 4.206 0.24 6.49s-0.087 4.548-0.258 6.788l0.018-0.298c-0.35 10.705-9.112 19.25-19.87 19.25s-19.52-8.545-19.869-19.217l-0.001-0.032c-0.34-4-0.16-8.020-0.16-12.020z"></path>
<path d="M512.18 430c-0.075 0.001-0.163 0.002-0.251 0.002-11.046 0-20-8.954-20-20s8.954-20 20-20c10.834 0 19.656 8.615 19.99 19.368l0.001 0.031c0.003 0.126 0.004 0.275 0.004 0.425 0 10.992-8.788 19.931-19.722 20.175h-0.023z"></path>
</svg>
