<!-- Generated by IcoMoon.io -->
<svg version="1.1" xmlns="http://www.w3.org/2000/svg" width="1024" height="1024" viewBox="0 0 1024 1024">
<title></title>
<g id="icomoon-ignore">
</g>
<path d="M1024.12 971.994c-12.641 17.502-23.543 18.362-38.925 3.060q-17.022-16.922-34.004-34.004c-1.196-0.816-2.596-1.653-4.045-2.409l-0.235-0.112c-6.301 7.081-13.242 14.622-19.862 22.423-22.563 26.563-45.425 27.483-69.288-0.3-6.441-7.521-14.002-14.122-22.523-22.723-9.881 10.501-18.982 20.602-28.563 30.224-17.102 17.162-36.464 17.162-53.546 0.16-10.141-10.001-20.002-20.482-31.804-32.604-9.261 9.861-17.622 19.182-26.443 28.003-20.462 20.542-44.625 17.342-59.527-7.721-14.622-24.583-29.123-49.226-44.005-74.429-22.363 11.821-45.345 20.002-70.108 22.763-56.987 6.401-107.193-9.261-148.997-48.226-35.524-33.224-69.208-68.428-103.532-102.932-9.121-9.161-9.381-21.302-1.4-29.423s20.402-8.001 30.124 1.68c31.464 31.224 62.687 62.707 94.111 94.011 54.686 54.386 127.895 61.787 192.203 19.522 6.941-4.561 13.782-9.281 19.322-13.022l-177.661-177.861c-2.78 2-7.501 5.601-12.461 8.841-19.862 13.042-44.825 11.781-61.747-4.721q-49.446-48.126-97.591-97.511c-16.482-16.922-17.682-42.005-4.581-61.767 3.1-4.681 6.501-9.141 9.181-12.862l-177.081-177.101c-60.227 69.728-50.826 156.018 4 210.025 31.064 30.684 61.807 61.727 92.671 92.611 2.114 2.035 4.078 4.182 5.898 6.449l0.103 0.132c2.658 3.341 4.265 7.621 4.265 12.278 0 10.937-8.866 19.802-19.802 19.802-4.741 0-9.093-1.666-12.502-4.445l0.036 0.028c-2.637-2.186-5.013-4.423-7.242-6.799l-0.039-0.042c-29.443-29.363-58.647-59.107-88.51-88.23-32.344-31.604-52.806-69.008-58.507-114.153-0.384-1.786-0.901-3.35-1.562-4.835l0.062 0.155v-38.004c1.54-7.481 2-15.342 4.781-22.323 7.861-20.002 15.262-40.445 25.423-59.307 10.001-18.402 22.723-35.264 34.764-52.426 38.124-54.386 113.473-62.627 161.679-17.002 29.523 28.003 58.207 56.827 86.25 86.23 36.984 38.805 40.225 94.591 9.001 138.396-11.601 16.282-23.803 32.124-35.684 48.206-8.381 11.341-8.201 13.262 2 23.523q42.425 42.425 84.85 84.83c9.781 9.781 11.901 10.001 22.763 2 16.002-11.861 32.004-24.003 48.206-35.664 44.505-32.004 101.452-28.003 140.696 10.321q41.505 40.505 82.010 82.010c48.186 49.586 40.705 125.635-16.002 165.219-8.161 5.721-16.502 11.201-26.003 17.602 7.281 12.421 14.382 24.643 21.563 36.844s14.222 24.003 23.103 38.905c8.841-9.761 16.482-18.782 24.743-27.203 17.642-18.002 36.884-18.002 54.886 0 9.901 9.861 19.582 20.002 30.804 31.444 9.721-10.001 18.762-19.662 28.003-29.003 18.722-18.782 37.424-18.742 56.307 0.18 9.141 9.181 18.002 18.642 28.403 29.423 10.581-11.081 20.002-21.322 29.803-31.144 16.562-16.562 36.124-16.622 52.826-0.26q20.342 20.002 40.265 40.325c2.861 3.269 5.629 6.85 8.173 10.595l0.248 0.387zM283.713 444.952c26.303-28.943 26.003-68.188-1.26-96.011q-40.005-40.645-80.689-80.509c-6.253-6.094-13.52-11.187-21.518-14.994l-0.485-0.208c-25.503-11.801-59.147-4.501-73.209 14.642zM462.154 621.213l177.561 177.541c25.323-25.083 25.443-66.308-1.1-93.511s-54.006-54.406-81.19-81.31c-27.723-27.323-65.528-28.223-95.271-2.72z"></path>
<path d="M1024.12 377.924c-1.64 5.661-3.1 11.401-4.921 17.022-13.722 42.705-52.446 70.828-98.352 70.928q-124.015 0.28-248.029 0c-0.408-0.029-0.885-0.045-1.365-0.045-6.028 0-11.452 2.586-15.223 6.71l-0.014 0.016c-14.002 14.702-28.683 28.803-43.005 43.245-6.881 6.941-14.542 10.641-24.243 6.501s-12.561-12.141-12.521-21.883c0-10.981 0-22.003 0-34.424-16.002 0-31.544 0.38-47.066 0-38.204-1.12-67.548-18.002-87.49-50.746-8.641-13.759-13.776-30.48-13.802-48.399v-0.007c-0.18-74.989-0.52-150.018 0-224.966 0.614-54.779 44.869-99.020 99.595-99.611h0.056q198.023-0.8 396.046 0c47.926-0.040 88.33 34.304 98.332 81.19 0.661 2.624 1.346 4.772 2.142 6.865l-0.142-0.424zM617.572 455.753c5.861-6.221 10.501-10.501 14.362-15.382 9.061-11.421 20.422-14.842 34.984-14.742 84.31 0.6 168.64 0.36 252.95 0.26 37.144 0 64.008-26.483 64.188-63.307q0.3-109.013 0-218.026c-0.14-35.724-27.043-62.547-62.827-62.547q-195.443-0.24-390.926 0c-35.104 0-62.007 27.103-62.187 62.207q-0.36 109.493 0 218.946c0 35.764 26.983 62.447 62.687 62.767 18.662 0.16 37.324 0 56.007 0 23.423 0 27.803 3.82 30.764 29.823z"></path>
<path d="M224.706 661.378c0.161-0.005 0.35-0.008 0.54-0.008 10.664 0 19.312 8.63 19.342 19.287v0.003c0.006 0.186 0.010 0.404 0.010 0.624 0 10.848-8.794 19.642-19.642 19.642-0.13 0-0.26-0.001-0.389-0.004h0.019c-10.856-0.246-19.562-9.105-19.562-19.998 0-0.002 0-0.003 0-0.005v0c0.057-10.805 8.829-19.542 19.642-19.542 0.014 0 0.028 0 0.042 0h-0.002z"></path>
<path d="M575.027 246.589c-8.541-20.002-9.381-39.785-5.201-59.587 7.201-34.004 39.685-57.767 73.409-54.646 36.204 3.34 64.168 32.144 64.508 68.008 0.14 15.382-2.56 30.784-4 47.146 0.9 0.32 4 1.24 7.081 2.5 31.184 13.082 48.366 36.544 51.006 70.188 0.331 5.546 0.52 12.031 0.52 18.56 0 5.432-0.131 10.833-0.389 16.201l0.029-0.757c-0.3 13.142-8.121 21.363-21.322 21.403q-102.392 0.3-204.844 0c-14.002 0-21.663-8.001-21.703-21.903s-1.14-28.203 1.060-41.865c5.401-33.804 26.443-54.746 59.847-65.248zM721.465 335.299c2.12-29.563-11.441-48.986-36.004-49.766-31.884-1-63.847-1.060-95.731 0-25.063 0.88-40.865 25.063-34.184 49.686zM607.571 208.544h0.36c0 2 0 4 0 6.001 0.48 17.022 13.102 30.004 29.443 30.364s30.004-12.862 30.604-30.324c0.112-1.912 0.175-4.149 0.175-6.4 0-3.020-0.114-6.014-0.339-8.976l0.024 0.394c-1.329-15.461-14.208-27.508-29.9-27.508-13.928 0-25.64 9.491-29.021 22.358l-0.047 0.209c-0.748 4.124-1.217 8.917-1.299 13.804l-0.001 0.077z"></path>
<path d="M867.142 245.069c13.302 0 26.603-0.26 39.885 0s21.463 8.161 21.443 19.842-8.161 19.742-21.443 20.002q-40.385 0.5-80.789 0c-13.682-0.16-22.403-8.661-22.003-20.442 0.28-11.481 8.661-19.082 22.003-19.362s27.263-0.040 40.905-0.040z"></path>
<path d="M866.101 365.023c-13.302 0-26.603 0.24-40.005 0-13.682-0.32-22.403-8.621-22.143-20.422 0.28-11.461 8.641-19.242 22.003-19.382q40.385-0.42 80.789 0c13.362 0.16 21.483 8.101 21.503 19.782s-8.161 19.622-21.423 20.002c-13.382 0.28-27.023 0-40.725 0.020z"></path>
<path d="M867.042 205.004c-13.302 0-26.603 0.2-40.005 0-14.002-0.26-22.743-7.841-22.983-19.582-0.28-12.101 8.641-20.182 23.183-20.282 26.263-0.2 52.526-0.24 78.789 0 14.002 0.12 22.403 8.001 22.343 20.002s-8.481 19.602-22.543 19.882c-12.862 0.18-25.723-0.020-38.785-0.020z"></path>
</svg>
