<!-- Generated by IcoMoon.io -->
<svg version="1.1" xmlns="http://www.w3.org/2000/svg" width="1024" height="1024" viewBox="0 0 1024 1024">
<title></title>
<g id="icomoon-ignore">
</g>
<path d="M520 0q100.28 55.78 200.54 111.6c85.46 47.76 170.66 95.84 256.12 143.54 15.080 8.42 25.26 19.56 25.4 37.58 0.14 18.48-10.24 30-25.68 38.42-32.96 18.12-65.5 37.060-98.6 54.9-9.3 5-12.94 10.4-12.84 21.42 0.66 66 0 132 0.54 198 0.18 20.54-7.48 35.080-24.72 46.54-100.76 67.38-201.26 135.3-301.86 202.96-21.2 14.26-34.4 14.14-56-0.34q-65.5-44-130.94-88.18c-3.24-2.16-6.54-4.22-11.66-7.52v12.32c0 75.66-0.18 151.32 0.2 226.96 0 12-3.7 20.6-14.58 25.8h-123.92c-10.9-6.48-13.86-16.18-13.8-28.54 0.34-90.28 0.2-180.56 0.18-270.84 0-20.92-1.42-42 10.22-61.22-4.201-3.206-9.016-6.505-13.994-9.563l-0.766-0.437c-20.16-10.9-27.28-27.54-26.96-50.3 0.94-66.62 0.22-133.26 0.52-199.88 0-7.32-2.3-11.3-8.68-14.8-34.98-19.22-70-38.42-104.36-58.74-8.795-5.287-15.862-12.63-20.673-21.387l-0.147-0.293c-9.46-18.7-1.060-39.52 18.72-50.68q96.52-54.46 193.22-108.52 133.2-74.5 266.52-148.8zM307.020 430.78c2.62 1.82 4.4 3.26 6.36 4.36 63.84 35.82 127.78 71.5 191.48 107.62 5.88 3.32 9.64 1.6 14.38-1.060q195-109.5 390-218.94c17.26-9.68 34.52-19.42 52.54-29.56-3.060-2-4.98-3.24-7-4.38q-218.5-122.6-436.98-245.34c-5.74-3.22-9.5-2-14.38 0.74q-180.64 101.48-361.42 202.8l-81.040 45.56c0.865 0.912 1.793 1.745 2.784 2.499l0.056 0.041q98.38 55.24 196.92 110.18c2.82 1.56 8.28 0.64 11.44-1.1 34.96-19.3 69.72-38.96 104.54-58.54l57.4-32.42c-7.58-27.3-0.74-50 20.16-68 30.6-26.34 80.46-26.72 111.86-1.28 33.12 26.82 33.1 73.32-1.060 98.82-30.68 22.86-64 24.24-97.76 6.88-6.64-3.42-10.98-3.18-17.060 0.32-28.54 16.46-57.36 32.44-86 48.62zM825.26 416.16c-4.82 2.58-7.72 4-10.56 5.64q-139.4 78.2-278.7 156.44c-17.12 9.66-32.76 9.6-49.88-0.14-63.64-36.22-127.64-71.86-191.54-107.68-2.96-1.66-6-2.98-9.86-4.8v161.56c36.72 13.72 56.12 39.28 56 78.96 0 2.96 3.62 6.8 6.56 8.78q67.8 46 136 91.56c2 1.38 4.34 2.4 7.54 4.12 0.2-4.4 0.5-7.64 0.5-10.86 0-22.34 0-44.68 0-67 0-14.88 7.64-23.52 20-23.44s19.78 8.76 19.9 23.68c0.18 20.32 0 40.66 0 61v17.16c4.2-2.44 6.78-3.76 9.16-5.36q138.46-93.18 276.92-186.28c5.46-3.68 8.16-7.3 8.12-14.36-0.34-56.32-0.18-112.66-0.18-168.98zM300 794.44h-71v188.84h71zM198.8 416.82c-0.88 1.66-1.18 2-1.18 2.24q-0.22 94.94-0.22 190c0.188 2.956 1.571 5.556 3.666 7.348l0.014 0.012c7.42 5.62 15.14 10.88 23.080 15.76 6.42 4 20.14-3.060 20.16-10.18q0.14-86.98 0-174c-0.029-2.944-1.326-5.58-3.37-7.391l-0.010-0.009c-13.76-8.16-27.74-15.76-42.14-23.78zM300 753.52c0-19.86 0.74-38.8-0.24-57.64-0.82-15.8-14.88-28.58-30.9-30.34-17.26-1.88-35.2 7.44-37.82 23.84-3.34 20.96-2.56 42.56-3.58 64.14zM511.38 323.62c10.7-4.64 21.5-7.48 30-13.48 13.040-9.12 12.32-24.34 0-34.66-16-13.52-44.94-13.64-61.16-0.26-12.42 10.24-12.96 26.54 0.42 35.46 8.88 5.82 19.76 8.44 30.74 12.94z"></path>
<path d="M511.28 629.32c10.868 0.059 19.656 8.883 19.656 19.76 0 10.913-8.847 19.76-19.76 19.76s-19.76-8.847-19.76-19.76c0-0.148 0.002-0.295 0.005-0.442v0.022c0.043-10.693 8.721-19.345 19.42-19.345 0.155 0 0.309 0.002 0.463 0.005h-0.023z"></path>
</svg>
