<!-- Generated by IcoMoon.io -->
<svg version="1.1" xmlns="http://www.w3.org/2000/svg" width="1024" height="1024" viewBox="0 0 1024 1024">
<title></title>
<g id="icomoon-ignore">
</g>
<path d="M612 1024c-13.52-8-18.1-20-17.66-35.3 0.5-17.62-0.14-35.28 0-52.92-0.001-0.124-0.001-0.27-0.001-0.417 0-5.096 0.657-10.038 1.891-14.747l-0.090 0.404c3.17-10.878 13.051-18.692 24.756-18.692 11.493 0 21.227 7.532 24.534 17.93l0.050 0.182c1.271 4.615 2.001 9.914 2.001 15.384 0 0.118 0 0.236-0.001 0.354v-0.018c0.3 18-0.18 36 0.4 54 0.48 15-4.34 26.62-18 33.9z"></path>
<path d="M502 1024c-13.52-8-18.1-20-17.66-35.3 0.5-17.62-0.14-35.28 0-52.92-0.001-0.124-0.001-0.27-0.001-0.417 0-5.096 0.657-10.038 1.891-14.747l-0.090 0.404c3.17-10.878 13.051-18.692 24.756-18.692 11.493 0 21.227 7.532 24.534 17.93l0.050 0.182c1.271 4.615 2.001 9.914 2.001 15.384 0 0.118 0 0.236-0.001 0.354v-0.018c0.3 18-0.18 36 0.4 54 0.48 15-4.34 26.62-18 33.9z"></path>
<path d="M398 1024c-13.52-8-18.1-20-17.66-35.3 0.5-17.62-0.14-35.28 0-52.92-0.001-0.124-0.001-0.27-0.001-0.417 0-5.096 0.657-10.038 1.891-14.747l-0.090 0.404c3.17-10.878 13.051-18.692 24.756-18.692 11.493 0 21.227 7.532 24.534 17.93l0.050 0.182c1.271 4.615 2.001 9.914 2.001 15.384 0 0.118 0 0.236-0.001 0.354v-0.018c0.3 18-0.18 36 0.4 54 0.48 15-4.34 26.62-18 33.9z"></path>
<path d="M282 1024c-13.52-8-18.1-20-17.66-35.3 0.5-17.62-0.14-35.28 0-52.92-0.001-0.124-0.001-0.27-0.001-0.417 0-5.096 0.657-10.038 1.891-14.747l-0.090 0.404c3.17-10.878 13.051-18.692 24.756-18.692 11.493 0 21.227 7.532 24.534 17.93l0.050 0.182c1.271 4.615 2.001 9.914 2.001 15.384 0 0.118 0 0.236-0.001 0.354v-0.018c0.3 18-0.18 36 0.4 54 0.48 15-4.34 26.62-18 33.9z"></path>
<path d="M716 1024c-13.52-8-18.1-20-17.66-35.3 0.5-17.62-0.14-35.28 0-52.92-0.001-0.124-0.001-0.27-0.001-0.417 0-5.096 0.657-10.038 1.891-14.747l-0.090 0.404c3.17-10.878 13.051-18.692 24.756-18.692 11.493 0 21.227 7.532 24.534 17.93l0.050 0.182c1.271 4.615 2.001 9.914 2.001 15.384 0 0.118 0 0.236-0.001 0.354v-0.018c0.3 18-0.18 36 0.4 54 0.48 15-4.34 26.62-18 33.9z"></path>
<path d="M0 730c6-16.48 18.4-22 35.1-21.74 19.62 0.42 39.24-0.34 58.86 0 18.44 0.38 28.8 11.6 27.86 28.96-0.72 13.28-10.48 22.64-26 23.84-10.58 0.8-21.26 0.4-31.9 0.48-9.64 0-19.3-0.22-28.94 0.18-16.78 0.8-29.16-5.1-34.98-21.72z"></path>
<path d="M1024 740c-8 13.52-20 18.1-35.3 17.66-17.62-0.5-35.28 0.14-52.92 0-0.124 0.001-0.27 0.001-0.417 0.001-5.096 0-10.038-0.657-14.747-1.891l0.404 0.090c-10.878-3.17-18.692-13.051-18.692-24.756 0-11.493 7.532-21.227 17.93-24.534l0.182-0.050c4.615-1.271 9.914-2.001 15.384-2.001 0.118 0 0.236 0 0.354 0.001h-0.018c18-0.3 36 0.18 54-0.4 15-0.48 26.62 4.34 33.9 18z"></path>
<path d="M0 614c6-16.5 18.44-22.1 35.14-21.74 18.28 0.42 36.6-0.12 54.9 0 0.082 0 0.18-0.001 0.277-0.001 4.8 0 9.451 0.635 13.875 1.826l-0.372-0.085c10.888 3.156 18.713 13.038 18.713 24.747 0 11.423-7.447 21.107-17.751 24.462l-0.182 0.051c-4.705 1.369-10.11 2.158-15.699 2.16h-0.001c-18 0.32-36 0-54 0.42-16.68 0.48-29.080-5.2-34.9-21.84z"></path>
<path d="M1024 624c-8 13.52-20 18.1-35.3 17.66-17.62-0.5-35.28 0.14-52.92 0-0.124 0.001-0.27 0.001-0.417 0.001-5.096 0-10.038-0.657-14.747-1.891l0.404 0.090c-10.878-3.17-18.692-13.051-18.692-24.756 0-11.493 7.532-21.227 17.93-24.534l0.182-0.050c4.615-1.271 9.914-2.001 15.384-2.001 0.118 0 0.236 0 0.354 0.001h-0.018c18-0.3 36 0.18 54-0.4 15-0.48 26.62 4.34 33.9 18z"></path>
<path d="M0 510c6-16.5 18.44-22.1 35.14-21.74 18.28 0.42 36.6-0.12 54.9 0 0.082 0 0.18-0.001 0.277-0.001 4.8 0 9.451 0.635 13.875 1.826l-0.372-0.085c10.888 3.156 18.713 13.038 18.713 24.747 0 11.423-7.447 21.107-17.751 24.462l-0.182 0.051c-4.705 1.369-10.11 2.158-15.699 2.16h-0.001c-18 0.32-36 0-54 0.42-16.68 0.48-29.080-5.2-34.9-21.84z"></path>
<path d="M1024 520c-8 13.52-20 18.1-35.3 17.66-17.62-0.5-35.28 0.14-52.92 0-0.124 0.001-0.27 0.001-0.417 0.001-5.096 0-10.038-0.657-14.747-1.891l0.404 0.090c-10.878-3.17-18.692-13.051-18.692-24.756 0-11.493 7.532-21.227 17.93-24.534l0.182-0.050c4.615-1.271 9.914-2.001 15.384-2.001 0.118 0 0.236 0 0.354 0.001h-0.018c18-0.3 36 0.18 54-0.4 15-0.48 26.62 4.34 33.9 18z"></path>
<path d="M1024 410c-8 13.52-20 18.1-35.3 17.66-17.62-0.5-35.28 0.14-52.92 0-0.124 0.001-0.27 0.001-0.417 0.001-5.096 0-10.038-0.657-14.747-1.891l0.404 0.090c-10.878-3.17-18.692-13.051-18.692-24.756 0-11.493 7.532-21.227 17.93-24.534l0.182-0.050c4.615-1.271 9.914-2.001 15.384-2.001 0.118 0 0.236 0 0.354 0.001h-0.018c18-0.3 36 0.18 54-0.4 15-0.48 26.62 4.34 33.9 18z"></path>
<path d="M0 296c6-16.5 18.44-22.1 35.14-21.74 18.28 0.42 36.6-0.12 54.9 0 0.082 0 0.18-0.001 0.277-0.001 4.8 0 9.451 0.635 13.875 1.826l-0.372-0.085c10.888 3.156 18.713 13.038 18.713 24.747 0 11.423-7.447 21.107-17.751 24.462l-0.182 0.051c-4.705 1.369-10.11 2.158-15.699 2.16h-0.001c-18 0.32-36-0.1-54 0.42-16.68 0.48-29.080-5.2-34.9-21.84z"></path>
<path d="M0 400c6-16.5 18.44-22.1 35.14-21.74 18.28 0.42 36.6-0.12 54.9 0 0.082 0 0.18-0.001 0.277-0.001 4.8 0 9.451 0.635 13.875 1.826l-0.372-0.085c10.888 3.156 18.713 13.038 18.713 24.747 0 11.423-7.447 21.107-17.751 24.462l-0.182 0.051c-4.705 1.369-10.11 2.158-15.699 2.16h-0.001c-18 0.32-36-0.1-54 0.42-16.68 0.48-29.080-5.2-34.9-21.84z"></path>
<path d="M1024 306c-8 13.52-20 18.1-35.3 17.66-17.62-0.5-35.28 0.14-52.92 0-0.124 0.001-0.27 0.001-0.417 0.001-5.096 0-10.038-0.657-14.747-1.891l0.404 0.090c-10.878-3.17-18.692-13.051-18.692-24.756 0-11.493 7.532-21.227 17.93-24.534l0.182-0.050c4.615-1.271 9.914-2.001 15.384-2.001 0.118 0 0.236 0 0.354 0.001h-0.018c18-0.3 36 0.18 54-0.4 15-0.48 26.62 4.34 33.9 18z"></path>
<path d="M730 0c16.48 6 22 18.42 21.74 35.1-0.42 19.62 0.34 39.26 0 58.86-0.38 18.44-11.6 28.82-28.98 27.86-13.26-0.72-22.64-10.48-23.82-26-0.8-10.58-0.4-21.26-0.48-32 0-9.64 0.22-19.3-0.18-28.92-0.8-16.72 5.1-29.080 21.72-34.9z"></path>
<path d="M626 0c16.48 6 22 18.42 21.74 35.1-0.42 19.62 0.34 39.26 0 58.86-0.38 18.44-11.6 28.82-28.98 27.86-13.26-0.72-22.64-10.48-23.82-26-0.8-10.58-0.4-21.26-0.48-32 0-9.64 0.22-19.3-0.18-28.92-0.8-16.72 5.1-29.080 21.72-34.9z"></path>
<path d="M516 0c16.48 6 22 18.42 21.74 35.1-0.42 19.62 0.34 39.26 0 58.86-0.38 18.44-11.6 28.82-28.98 27.86-13.26-0.72-22.64-10.48-23.82-26-0.8-10.58-0.4-21.26-0.48-32 0-9.64 0.22-19.3-0.18-28.92-0.8-16.72 5.1-29.080 21.72-34.9z"></path>
<path d="M412 0c16.48 6 22 18.42 21.74 35.1-0.42 19.62 0.34 39.26 0 58.86-0.38 18.44-11.6 28.82-28.98 27.86-13.26-0.72-22.64-10.48-23.82-26-0.8-10.58-0.4-21.26-0.48-32 0-9.64 0.22-19.3-0.18-28.92-0.8-16.72 5.1-29.080 21.72-34.9z"></path>
<path d="M296 0c16.48 6 22 18.42 21.74 35.1-0.42 19.62 0.34 39.26 0 58.86-0.38 18.44-11.6 28.82-28.98 27.86-13.26-0.72-22.64-10.48-23.82-26-0.8-10.58-0.4-21.26-0.48-32 0-9.64 0.22-19.3-0.18-28.92-0.8-16.72 5.1-29.080 21.72-34.9z"></path>
<path d="M872 515c0 111.62-0.26 223.26 0.22 334.88 0.1 23.66-10.54 33.14-33.48 32.78-95.62-1.5-191.26-0.64-286.9-0.46q-186.92 0.38-373.86 1.040c-0.653 0.014-1.423 0.023-2.195 0.023-4.867 0-9.658-0.328-14.352-0.963l0.547 0.061c-10-1.48-16.2-7.56-18.28-17.32-0.82-4.126-1.289-8.871-1.289-13.724 0-0.399 0.003-0.798 0.010-1.196l-0.001 0.060q-0.42-333.38-0.78-666.78c0-28 5.84-33.34 34.22-33.38q250-0.34 499.84-0.98c56.32-0.12 112.64-0.48 168.94-0.68 21.020 0 29.74 8.78 29.74 29.76q0 168.42 0 336.88zM187.56 194.48v643.26c4.44 0.22 7.38 0.48 10.32 0.48q309.46-0.3 618.88-0.5c8 0 10.88-1.86 10.9-10.44q0.92-311.44 2.32-622.86c0-3.24-0.28-6.48-0.46-10z"></path>
<path d="M511.24 355.74h122.92c22.28 0 31.7 9.3 31.86 31.44q0.8 116.92 1.66 233.84c0.2 27.5-8.74 36.52-36.34 36.74l-244.84 1.76c-19.18 0.14-30-10-30-29.36q-0.36-122.42-0.16-244.86c0-18 9.020-27.32 27.060-27.48 42.64-0.38 85.26-0.12 128-0.12zM514.1 610.78c6.14 2 7.58-1.24 7.56-7.14 0-12.98 0.8-26 0.22-38.96-0.68-14.76 3.080-26.82 16.14-35 4.26-2.66 5.62-5.74 4.3-11.46-0.446-1.679-0.702-3.606-0.702-5.593 0-11.708 8.888-21.341 20.285-22.519l0.097-0.008c0.758-0.103 1.634-0.162 2.524-0.162 10.924 0 19.78 8.856 19.78 19.78 0 0.134-0.001 0.268-0.004 0.402v-0.020c0.004 0.153 0.006 0.334 0.006 0.515 0 12.946-10.494 23.44-23.44 23.44-0.565 0-1.125-0.020-1.68-0.059l0.075 0.004c-6.44-0.32-24.42 11.84-24.6 18-0.6 19.48-0.22 39-0.22 59.24 26.22 0 51.48-0.3 76.74 0.16 8.22 0.16 9.88-2.9 9.82-10.48-0.54-62.64-0.68-125.3-0.98-188 0-3.5-0.32-6.98-0.44-9.22h-215.7v207.42h77.68c0-17.72 0-34.34 0-50.98 0-4.96-15.040-28.12-19.56-29.62-0.429-0.056-0.925-0.089-1.429-0.089-1.21 0-2.377 0.186-3.473 0.531l0.082-0.022c-10.8 1.56-19.86-2.66-24.12-11.66s-2.88-17.4 4.24-24.66 15.040-8 23.74-3.8c7.106 3.404 11.927 10.539 11.927 18.8 0 1.965-0.273 3.865-0.782 5.667l0.035-0.146c-1.38 5.66-0.6 9.3 3.76 12.8 14.58 11.74 21.22 26.64 18 45.5-0.166 2.020-0.261 4.372-0.261 6.746 0 1.144 0.022 2.283 0.066 3.417l-0.005-0.163c-0.36 6.98-1.18 14-1.080 20.94 0 2.26 2.28 4.5 3.52 6.76 1.12-2 2.34-4 3.26-6.22 0.087-0.448 0.136-0.963 0.136-1.49s-0.050-1.042-0.144-1.541l0.008 0.051c0.82-46.62 1.58-93.26 2.54-140 0.1-5.1-0.98-8.18-5.84-11.12-8.62-5.2-11.42-13.7-8.26-23.4 3.020-9.3 9.68-13.54 19.58-13.88 9.56-0.32 16.26 3.48 20 12s-0.1 18.4-7.34 25.12c-2.989 2.897-4.974 6.813-5.394 11.187l-0.006 0.073c-0.68 18.3-0.6 36.64-0.64 54.96-0.12 30.98-0.020 61.92-0.020 93.9zM465.4 511c-6.5-4.74-10-8.8-14.24-9.78-2.2-0.5-8.5 5.7-8 6.66 2 4.22 4.98 9 8.92 10.82 2.020 0.98 6.72-3.7 13.32-7.7zM506.96 445.44c4.7-6.12 9.12-9.54 9.68-13.5 0.32-2.24-5.42-7.14-8.94-7.7-6-0.98-10.26 3.52-9.3 9.68 0.5 3.24 4.24 5.96 8.56 11.52zM576 510.68c-6-4-10.48-8.7-12-7.88-4.099 2.602-7.327 6.247-9.355 10.567l-0.065 0.153c-0.52 1.080 5.76 7.68 7.64 7.16 4.28-1.18 7.66-5.24 13.78-10z"></path>
<path d="M421.42 320c-12.631-0.135-22.824-10.378-22.88-23.015v-0.005c0.453-12.562 10.717-22.581 23.334-22.64h0.006c12.52 0.123 22.622 10.302 22.622 22.839 0 0.099-0.001 0.198-0.002 0.296v-0.015c-0.008 12.454-10.105 22.546-22.56 22.546-0.183 0-0.365-0.002-0.547-0.007l0.027 0.001z"></path>
<path d="M618.48 728c-0.312 12.228-10.299 22.022-22.573 22.022-0.347 0-0.692-0.008-1.036-0.023l0.049 0.002c-12.441-0.431-22.363-10.62-22.363-23.127 0-0.138 0.001-0.276 0.004-0.414v0.021c0.728-12.379 10.945-22.143 23.442-22.143 0.133 0 0.266 0.001 0.398 0.003h-0.020c12.297 0.392 22.116 10.454 22.116 22.809 0 0.299-0.006 0.597-0.017 0.894l0.001-0.043z"></path>
<path d="M532.5 727.020c0.003 0.131 0.004 0.285 0.004 0.44 0 12.436-10.071 22.52-22.502 22.54h-0.002c-0.068 0.001-0.148 0.001-0.229 0.001-12.566 0-22.795-10.008-23.15-22.488l-0.001-0.033c0.162-12.61 10.257-22.809 22.809-23.139l0.031-0.001c0.054 0 0.117-0.001 0.181-0.001 12.562 0 22.758 10.133 22.859 22.671v0.010z"></path>
<path d="M446.5 727.22c0.001 0.066 0.001 0.143 0.001 0.221 0 12.46-10.1 22.56-22.56 22.56-0.078 0-0.155 0-0.233-0.001h0.012c-0.019 0-0.041 0-0.064 0-12.621 0-22.88-10.113-23.116-22.678v-0.022c0.264-12.601 10.432-22.741 23.019-22.96h0.021c0.024 0 0.052 0 0.080 0 12.614 0 22.84 10.226 22.84 22.84 0 0.014 0 0.028 0 0.042v-0.002z"></path>
<path d="M530.5 297.1c0.002 0.101 0.003 0.221 0.003 0.34 0 12.46-10.1 22.56-22.56 22.56-0.043 0-0.086 0-0.129 0h0.007c-0.038 0-0.082 0-0.127 0-12.594 0-22.84-10.052-23.153-22.571l-0.001-0.029c0.208-12.602 10.33-22.773 22.893-23.060h0.027c0.054 0 0.117-0.001 0.18-0.001 12.59 0 22.803 10.178 22.86 22.755v0.005z"></path>
<path d="M616.48 298.68c-0.676 11.948-10.529 21.381-22.586 21.381-0.582 0-1.159-0.022-1.73-0.065l0.076 0.005c-12.127-0.788-21.665-10.817-21.665-23.074 0-0.375 0.009-0.748 0.027-1.118l-0.002 0.052c1.051-12.067 11.106-21.465 23.357-21.465 0.381 0 0.76 0.009 1.137 0.027l-0.053-0.002c12.018 0.735 21.487 10.662 21.487 22.8 0 0.514-0.017 1.023-0.050 1.529l0.004-0.069z"></path>
<path d="M746 600.68c-0.191 12.616-10.458 22.77-23.099 22.78h-0.001c-12.535-0.519-22.5-10.806-22.5-23.421 0-0.014 0-0.027 0-0.041v0.002c0.167-12.475 10.319-22.524 22.818-22.524 0.141 0 0.282 0.001 0.423 0.004h-0.021c12.388 0.108 22.389 10.176 22.389 22.579 0 0.218-0.003 0.436-0.009 0.653l0.001-0.032z"></path>
<path d="M316 596.92c-0.345 12.511-10.57 22.521-23.132 22.521-0.073 0-0.146 0-0.219-0.001h0.011c-12.426-0.635-22.261-10.864-22.261-23.391 0-0.087 0-0.175 0.001-0.262v0.013c0.286-12.37 10.382-22.289 22.794-22.289 0.227 0 0.453 0.003 0.679 0.010l-0.033-0.001c12.293 0.216 22.176 10.232 22.176 22.557 0 0.297-0.006 0.592-0.017 0.886l0.001-0.042z"></path>
<path d="M746 514c0.002 0.104 0.003 0.228 0.003 0.351 0 12.517-9.946 22.71-22.366 23.108l-0.037 0.001c-12.629-0.072-22.883-10.138-23.259-22.685l-0.001-0.035c-0.002-0.102-0.003-0.222-0.003-0.343 0-12.511 10.041-22.676 22.504-22.877h0.019c0.173-0.005 0.376-0.007 0.58-0.007 12.434 0 22.519 10.059 22.56 22.484v0.004z"></path>
<path d="M293.1 487.5c0.107-0.002 0.234-0.003 0.36-0.003 12.448 0 22.54 10.092 22.54 22.54 0 0.043 0 0.086 0 0.13v-0.007c0 0.050 0.001 0.108 0.001 0.167 0 12.583-10.044 22.821-22.552 23.133l-0.029 0.001c-12.611-0.197-22.793-10.323-23.080-22.893v-0.027c-0.001-0.059-0.001-0.13-0.001-0.2 0-12.586 10.181-22.795 22.757-22.84h0.004z"></path>
<path d="M316 424.52c-0.112 12.624-10.316 22.828-22.929 22.94h-0.011c-12.543-0.441-22.557-10.664-22.66-23.25v-0.010c0.079-12.554 10.274-22.701 22.84-22.701 0.070 0 0.141 0 0.211 0.001h-0.011c0.001 0 0.003 0 0.005 0 12.46 0 22.56 10.1 22.56 22.56 0 0.162-0.002 0.323-0.005 0.484v-0.024z"></path>
<path d="M723.42 405.5c0.007 0 0.016 0 0.024 0 12.46 0 22.56 10.1 22.56 22.56 0 0.148-0.001 0.295-0.004 0.442v-0.022c-0.067 12.636-10.27 22.867-22.889 22.98h-0.011c-12.579-0.387-22.644-10.619-22.76-23.229v-0.011c0.067-12.563 10.267-22.721 22.84-22.721 0.085 0 0.169 0 0.253 0.001h-0.013z"></path>
<path d="M521.64 502.36c-2.34-11.28 3.24-20.3 13.8-26.92 4.4-2.76 7.080-5.48 5.76-12-2.48-12.14 7.24-23.48 19.24-24.22s21.1 7.48 21.38 18.76c0.3 12.28-11.060 24.12-23.24 21.76-11.62-2.26-16.32 6.92-24 11.1-1.18 0.64-1.1 4.12-1.1 6.28 0 6 0.88 12 0 18-0.42 2.62-4.24 4.74-6.52 7.080-1.78-2.4-4.42-4.56-5.12-7.24-0.88-3.52-0.2-7.36-0.2-12.6zM572.92 458.36c-4.9-3.58-8.5-8-10.54-7.3-3.72 1.14-6.52 5.26-9.7 8.12 2.64 2.84 5.6 8.2 7.84 8 3.68-0.56 6.92-4.68 12.4-8.82z"></path>
<path d="M480.54 502.66c4-8.2-2.98-14.2-9.48-20-2.318-1.98-5.351-3.185-8.665-3.185-0.125 0-0.249 0.002-0.373 0.005h0.018c-10.92 0.96-21.22-3.58-24.84-12.64-3.18-8-2.48-15.66 4.3-21.88 6.36-5.86 19.28-7.1 27.12-2.7 8.72 4.92 11.44 12.48 9.6 24-0.44 2.82 0.7 7.44 2.74 8.84 16.38 11.24 10 27.88 10.56 42.8 0 1.48-3.52 4.36-5.34 4.3-2.474-0.499-4.467-2.188-5.382-4.431l-0.018-0.049c-0.78-4.14-0.24-8.56-0.24-15.060zM457.1 472.34c5.020-5.86 10.76-11.040 10-12-2.72-4.18-6.96-8.44-11.54-10-2.12-0.68-9.38 5.7-8.92 7.46 1.36 4.44 5.5 8.040 10.46 14.54z"></path>
<path d="M554.44 603.64h-12.86c0.84-10.44-1.74-22.92 3.28-30.1 7.22-10.38 14.7-19.28 14.1-32.66 0-0.66 4-2.32 5.88-2 2.127 0.503 3.847 1.927 4.742 3.818l0.018 0.042c3.62 10.4-1.060 23.42-9.34 30.76-2.924 2.955-4.933 6.819-5.567 11.131l-0.013 0.109c-0.92 5.74-0.24 11.8-0.24 18.9z"></path>
<path d="M474.1 603.62h-12.4c-0.54-0.82-1.26-1.4-1.2-2 1.6-14.78-2-27.060-12.98-38.26-3.72-3.82-1.74-13.52-1.58-20.52 0-1.36 3.88-3.9 5.6-3.64s4.84 3.7 4.52 5.060c-2.7 11.36 7.020 16.76 10.64 25 4.38 10.060 4.88 21.72 7.4 34.36z"></path>
</svg>
