<!-- Generated by IcoMoon.io -->
<svg version="1.1" xmlns="http://www.w3.org/2000/svg" width="1024" height="1024" viewBox="0 0 1024 1024">
<title></title>
<g id="icomoon-ignore">
</g>
<path d="M514.084 353.974c0.996-0.005 2.174-0.008 3.353-0.008 99.944 0 195.054 20.696 281.279 58.035l-4.586-1.768c72.678 31.505 136.772 75.846 185.53 139.856 4.295 5.416 8.011 11.592 10.88 18.22l0.205 0.533c1.122 2.884 1.773 6.223 1.773 9.714 0 9.55-4.868 17.964-12.257 22.895l-0.1 0.063c-4.532 3.158-10.155 5.045-16.218 5.045-6.939 0-13.3-2.472-18.251-6.583l0.047 0.038c-3.12-2.803-5.865-5.919-8.22-9.326l-0.115-0.176c-35.496-46.757-80.619-84.333-132.593-110.203l-2.179-0.981c-107.267-55.259-221.953-72.262-341.139-64.177-84.78 5.286-163.415 26.429-234.696 60.489l3.825-1.646c-62.715 28.497-115.38 69.175-156.944 119.379l-0.582 0.724c-5.788 9.093-15.815 15.039-27.23 15.039-0.536 0-1.069-0.013-1.599-0.039l0.075 0.003c-14.83-1.056-26.461-13.347-26.461-28.354 0-7.232 2.701-13.834 7.15-18.85l-0.026 0.030c19.58-23.901 40.118-45.31 62.202-65.021l0.558-0.489c78.93-67.261 171.945-105.35 272.544-126.437 46.12-9.931 99.194-15.746 153.581-16.002l0.194-0.001z"></path>
<path d="M513 495.414c83.968 1.66 151.4 70.12 151.4 154.33 0 85.25-69.109 154.358-154.358 154.358s-154.358-69.109-154.358-154.358c0-1.25 0.015-2.497 0.044-3.74l-0.003 0.185c1.99-83.706 70.318-150.803 154.318-150.803 1.040 0 2.078 0.010 3.113 0.031l-0.155-0.002zM605.765 650.106c0.001-0.124 0.001-0.27 0.001-0.417 0-52.89-42.876-95.766-95.766-95.766s-95.766 42.876-95.766 95.766c0 52.89 42.876 95.766 95.766 95.766 0.058 0 0.117 0 0.175 0h-0.009c0 0 0 0 0 0 52.71 0 95.456-42.659 95.599-95.335v-0.014z"></path>
<path d="M522.085 955.822c-3.223 0.066-7.022 0.104-10.829 0.104-55.523 0-109.173-8.015-159.858-22.95l3.994 1.009c-18.253-5.501-27.755-19.253-25.004-34.589 2.775-13.79 14.791-24.030 29.199-24.030 3.174 0 6.233 0.497 9.101 1.418l-0.211-0.058c24.337 5.334 48.591 11.919 73.262 15.252 22.865 3.066 49.298 4.816 76.14 4.816 54.682 0 107.667-7.262 158.044-20.875l-4.231 0.973c70.566-17.075 132.518-46.149 186.759-85.252l-1.562 1.072c15.419-11.335 32.505-9.252 42.59 4.167s7.001 30.838-8.835 42.674c-50.986 37.564-110.486 67.318-174.717 85.943l-3.978 0.988c-56.627 17.716-121.821 28.371-189.36 29.332l-0.505 0.006z"></path>
<path d="M204.283 63.594c0.064 0 0.14-0.001 0.216-0.001 10.625 0 19.985 5.418 25.468 13.641l0.070 0.112q51.258 74.345 102.1 149.024c3.879 4.888 6.224 11.146 6.224 17.953 0 16.019-12.986 29.005-29.005 29.005-10.523 0-19.737-5.604-24.821-13.99l-0.073-0.129c-34.422-49.341-68.344-99.099-102.267-148.858-3.708-4.803-5.943-10.907-5.943-17.534 0-5.364 1.465-10.386 4.016-14.688l-0.073 0.133c4.8-8.603 13.738-14.39 24.049-14.668l0.038-0.001z"></path>
<path d="M835.886 109.851c-1.357 5.494-3.36 10.326-5.973 14.756l0.139-0.254q-49.425 68.511-100.016 136.356c-4.976 7.353-13.288 12.123-22.713 12.123-2.962 0-5.814-0.471-8.486-1.343l0.193 0.055c-11.246-2.134-19.741-11.568-20.417-23.103l-0.003-0.068c-0.016-0.421-0.025-0.915-0.025-1.411 0-8.168 2.468-15.759 6.7-22.069l-0.090 0.143c32.005-45.007 64.927-89.515 97.599-134.022 5.19-7.793 13.939-12.858 23.871-12.858 3.642 0 7.125 0.681 10.329 1.923l-0.195-0.067c11.306 4.635 19.125 15.556 19.125 28.303 0 0.54-0.014 1.077-0.042 1.61l0.003-0.075z"></path>
<path d="M537.754 135.605c0 21.92 0 43.84 0 65.844-0.078 7.333-1.354 14.343-3.64 20.878l0.139-0.458c-4.090 10.495-14.117 17.797-25.85 17.797-0.935 0-1.859-0.046-2.77-0.137l0.115 0.009c-12.291-1.204-22.211-10.081-24.966-21.727l-0.038-0.193c-1.127-4.736-1.774-10.174-1.774-15.763 0-0.641 0.009-1.28 0.025-1.917l-0.002 0.094q2.584-62.343 5.668-124.604c0.179-7.423 1.232-14.519 3.061-21.297l-0.144 0.627c3.495-11.713 14.17-20.106 26.805-20.106 0.363 0 0.725 0.007 1.085 0.021l-0.052-0.002c13.284 0.424 24.243 9.875 26.97 22.399l0.034 0.188c0.799 3.514 1.257 7.549 1.257 11.691 0 1.106-0.033 2.205-0.097 3.295l0.007-0.15c-0.75 21.253-1.917 42.507-2.917 63.76z"></path>
<path d="M236.955 894.146c-6.741-1.402-12.33-2.926-17.788-4.739l1.118 0.322c-34.776-13.176-64.698-31.522-90.475-54.431l0.293 0.256c-7.505-5.604-12.311-14.463-12.311-24.444 0-2.717 0.356-5.351 1.024-7.857l-0.048 0.213c2.506-10.69 10.996-18.873 21.666-20.893l0.171-0.027c12.335-2.917 21.503 3.584 30.922 10.418 15.336 11.085 30.838 22.087 47.174 31.588 9.105 4.53 20.138 9.021 31.52 12.738l1.818 0.514c11.382 4.12 19.368 14.836 19.368 27.416 0 1.799-0.163 3.559-0.476 5.267l0.027-0.178c-3.334 14.502-15.336 24.004-34.006 23.837z"></path>
</svg>
