<!-- Generated by IcoMoon.io -->
<svg version="1.1" xmlns="http://www.w3.org/2000/svg" width="1024" height="1024" viewBox="0 0 1024 1024">
<title></title>
<g id="icomoon-ignore">
</g>
<path d="M843.971 309.217c3.917 0 6.834 0.583 9.752 0.667 31.255 0 62.594 0 93.932 0 32.839 0 54.342 31.088 43.84 63.76q-58.843 182.446-117.519 364.893c-10.835 33.339-21.003 67.344-31.922 100.85-9.885 27.564-35.789 46.926-66.214 46.926-0.163 0-0.326-0.001-0.488-0.002h0.025q-332.888-2.25-665.942-4.251c-34.422 0-56.176-21.337-56.259-56.009v-637.937c-0.090-1.484-0.141-3.218-0.141-4.965 0-14.064 3.314-27.354 9.205-39.132l-0.229 0.506c7.531-16.007 23.525-26.89 42.061-26.89 0.772 0 1.541 0.019 2.304 0.056l-0.108-0.004c75.929 1 151.941 1.5 227.87 2.584 6.221 0.256 11.946 2.179 16.799 5.33l-0.13-0.079c41.673 27.504 83.847 55.676 126.021 83.347 4.671 2.647 10.259 4.207 16.211 4.207 0.572 0 1.14-0.014 1.704-0.043l-0.079 0.003c99.35-1.75 198.366-3.584 297.132-4.667 0.216-0.003 0.471-0.004 0.727-0.004 7.772 0 15.23 1.345 22.154 3.815l-0.461-0.143c22.17 8.335 31.505 25.004 29.838 48.341-1 15.753-0.083 32.089-0.083 48.841zM802.297 309.217c0-14.419 0-28.338 0-42.257 0-18.503 0-18.503-19.086-18.003h-1q-146.524 2.667-292.964 5.334c-0.422 0.012-0.919 0.018-1.418 0.018-11.73 0-22.599-3.689-31.51-9.969l0.173 0.116q-58.343-39.006-117.769-77.263c-4.143-2.806-9.154-4.643-14.561-5.077l-0.108-0.007q-105.017-1.75-209.951-2.917c-13.169 0-17.169 3.417-19.336 16.669-0.277 2.244-0.435 4.842-0.435 7.477 0 0.536 0.007 1.071 0.020 1.604l-0.002-0.079q0 308.967 0 618.017c0 9.001 0.667 17.92 1.167 26.921 0 7.001 3.251 11.002 11.085 10.835 1.69-0.049 3.679-0.077 5.675-0.077 7.159 0 14.234 0.361 21.207 1.066l-0.878-0.072c7.501 0.833 10.502-2.334 12.585-9.085 8.335-28.421 17.503-56.593 26.421-84.847 4.584-14.669 8.918-29.338 14.169-43.757 2.568-8.392 10.246-14.389 19.324-14.389 2.209 0 4.334 0.355 6.323 1.011l-0.143-0.041c8.089 2.898 13.772 10.498 13.772 19.426 0 1.986-0.281 3.906-0.806 5.723l0.036-0.145c-0.713 3.365-1.489 6.158-2.412 8.883l0.161-0.549c-7.668 24.421-15.419 48.841-23.087 73.345-4.501 14.419-8.918 28.921-13.836 44.757h13.669l426.069 2.334c50.008 0 99.266 0.583 148.941 0 18.753 0 24.337-5.251 30.005-22.837q29.005-90.431 58.343-180.613 43.59-135.855 87.098-271.961c1.584-4.834 2.334-9.918 3.834-16.669h-23.754l-575.094-5.168c-18.67 0-19.503 0-25.004 18.17 0 1.334-0.667 2.584-1 3.917q-35.172 118.269-70.345 236.455c-4.417 14.919-14.419 21.17-26.504 17.586s-16.669-14.502-11.919-29.505c3.917-13.419 7.918-26.754 11.835-40.173q29.255-100.016 58.343-199.366c10.918-37.256 25.004-48.175 63.094-48.008h5.001l354.974 3.084c29.088 0 58.51-0.25 89.348-0.25z"></path>
<path d="M236.038 655.523c-0.094 9.549-7.857 17.253-17.419 17.253-9.621 0-17.42-7.799-17.42-17.42s7.799-17.419 17.419-17.42v0c0.232-0.012 0.503-0.018 0.776-0.018 9.206 0 16.669 7.463 16.669 16.669 0 0.329-0.010 0.656-0.028 0.98l0.002-0.045z"></path>
</svg>
