<!-- Generated by IcoMoon.io -->
<svg version="1.1" xmlns="http://www.w3.org/2000/svg" width="1024" height="1024" viewBox="0 0 1024 1024">
<title></title>
<g id="icomoon-ignore">
</g>
<path d="M385.491 879.464c-25.73 2.361-47.619-6.703-69.427-17.307-23.909-11.645-41.596-28.811-51.68-53.261-11.204-27.091-28.831-47.499-56.022-59.403-12.405-5.422-22.729-14.005-28.851-26.57s-3.121-19.788 10.004-25.65c15.766-7.003 31.172-5.302 46.758-0.3 40.695 12.944 75.943 32.448 106.401 57.554l-0.54-0.432c7.251 6.161 15.374 11.724 24.045 16.4l0.745 0.367c7.763 4.002 16.626 5.822 26.010 8.903 2.001-11.765 3.621-21.428 5.342-31.652-8.823-1.781-17.367-2.981-25.61-5.262-49.819-13.705-87.654-44.017-113.084-88.034-45.858-79.571-46.898-160.383 0.32-239.994 7.063-12.005 11.404-22.009 9.704-36.294-3.421-28.371 1.020-56.542 7.443-84.273 3.621-15.686 11.104-21.428 27.091-23.169 20.768-2.241 39.475 5.882 58.343 11.885 16.306 5.182 31.572 13.665 47.399 20.508 2.201 0.96 5.262 1.861 7.283 1.080 48.939-19.027 100.039-18.747 150.959-14.806 18.287 1.401 36.134 8.263 54.261 12.265 3.041 0.68 7.383 0.68 9.644-1 27.434-20.661 61.444-33.994 98.423-36.523l0.575-0.032c15.606-1.16 24.91 2.321 30.192 16.947 12.005 33.233 19.488 67.186 10.384 102.78-0.74 2.901 1.14 7.603 3.381 10.004 76.030 81.612 76.45 214.644 0.72 296.596-30.892 33.413-69.167 52.561-114.365 57.923-3.261 0.38-6.503 0.94-11.204 1.621 19.027 57.883 16.486 117.106 13.845 177.97 6.863-1.901 12.005-2.901 16.767-4.702 55.842-20.948 106.262-50.82 150.059-91.496 3.453-3.425 7.357-6.405 11.612-8.84l0.273-0.144c2.993-1.624 6.554-2.579 10.338-2.579 6.771 0 12.828 3.058 16.865 7.867l0.028 0.034c3.55 3.852 5.726 9.017 5.726 14.691 0 4.538-1.392 8.751-3.773 12.234l0.048-0.075c-2.462 3.705-5.248 6.911-8.395 9.721l-0.048 0.042c-78.030 71.628-169.146 116.786-274.627 126.81-205.82 19.588-365.743-59.503-475.986-234.091-52.44-83.012-74.969-176.069-66.926-274.247 16.206-198.798 116.886-340.673 299.277-420.424 199.558-87.254 440.172-21.348 572.103 151.839 53.349 68.699 88.872 153.695 98.27 246.411l0.168 2.046c7.403 71.408-2.001 140.975-25.91 208.501-2.731 6.877-7.227 12.564-12.935 16.671l-0.11 0.076c-8.003 5.702-17.407 3.902-24.99-2.501-8.783-7.383-9.284-16.967-6.302-27.391 5.842-20.468 13.105-40.716 16.827-61.564 28.311-158.062-14.266-294.395-129.771-406.159-66.386-64.305-147.157-101.32-238.333-114.745-199.838-29.411-397.115 84.393-471.904 271.726-91.056 228.089 22.909 486.71 252.539 573.204 9.684 3.641 10.764 2.801 10.644-7.703-0.12-10.904-0.020-21.829-0.020-34.053zM313.823 313.943c-0.42 24.009-2.941 45.018-0.52 65.546 2.201 18.847-0.38 33.253-11.705 49.519-47.679 68.407-34.353 154.36 6.943 212.083 21.128 29.492 49.019 49.759 85.613 56.022 9.484 1.601 19.187 2.001 28.811 2.901 22.329 1.861 32.413 17.527 26.35 38.675-3.737 12.655-6.854 27.847-8.745 43.417l-0.139 1.4c-2.321 18.967-6.302 27.111-20.988 30.012-28.011 5.422-55.742 6.142-80.271-12.665q-24.61-18.827-49.739-36.974c-9.544-6.963-19.448-13.405-29.191-20.008l-1.681 2.001c19.788 15.726 31.312 37.335 43.697 58.483 4.222 7.223 11.224 13.085 17.687 18.747 23.009 20.108 51.24 24.009 80.311 25.15 18.547 0.7 25.47 5.462 27.691 24.109s2.001 37.855 2.001 56.782c0 7.223 1.801 10.424 8.863 11.204 28.431 3.141 56.802 8.463 85.293 9.164 26.81 0.66 53.761-3.481 80.631-5.562 9.884-0.76 14.005-5.822 14.686-16.006 4.782-66.446-0.46-131.151-29.832-192.275-2.15-4.551-3.405-9.887-3.405-15.515 0-0.63 0.016-1.257 0.047-1.879l-0.003 0.087c0.7-13.425 10.644-21.288 23.449-20.328 11.905 0.9 23.869 1.561 35.814 1.841 25.13 0.6 47.899-7.003 68.827-20.668 55.262-36.014 82.332-105.081 68.807-174.488-6.182-31.772-18.887-60.324-40.316-84.713-10.464-11.885-16.466-24.91-12.745-41.176 0.713-3.586 1.12-7.708 1.12-11.926 0-0.028 0-0.056 0-0.083v0.004c0.8-20.708-2.261-40.916-6.943-61.844-4.466 1.105-8.079 2.223-11.609 3.512l0.785-0.251c-23.249 10.004-46.658 19.628-69.567 30.372-13.345 6.242-25.81 9.284-40.016 2.601-7.043-3.301-15.426-4.002-23.329-5.082-51.56-6.503-102.52-0.9-153.060 9.164-16.927 3.381-31.592 0.74-47.178-6.423-20.308-9.604-41.796-15.966-66.446-24.93z"></path>
<path d="M951.152 755.015c0.019 0.388 0.030 0.843 0.030 1.301 0 15.719-12.711 28.468-28.415 28.531h-0.006c-14.286 0.26-27.291-12.205-27.311-26.21 0-17.787 11.845-30.492 28.671-30.612 13.585-0.1 26.79 13.085 27.031 26.991z"></path>
</svg>
