<!-- Generated by IcoMoon.io -->
<svg version="1.1" xmlns="http://www.w3.org/2000/svg" width="1024" height="1024" viewBox="0 0 1024 1024">
<title></title>
<g id="icomoon-ignore">
</g>
<path d="M416.24 645.7c-4.38-6.94-8.64-14-13.16-20.86-38.94-59.32-77.68-118.76-116.9-177.88-75.3-113.46-49.78-261.9 60.2-348.72 119.56-94.4 299.24-76 396.24 40.54 70.74 85.020 80.68 203.48 22.32 297.4-31.8 51.16-67.46 100-101.42 149.78-14 20.58-28.12 41.1-43 62.82 19.74 2.46 38 4.48 56.32 7.080 69.12 9.88 136.88 25.060 200.76 54.32 30.46 14 59.1 30.9 81.36 56.72 31.7 36.78 31.86 79 0.24 115.8-6.14 7.061-12.751 13.386-19.896 19.067l-0.304 0.233c-34.46 27.54-74.64 43.72-116.32 56-29.020 8.52-58.8 14.4-88.26 21.44-1.177 0.285-2.549 0.479-3.956 0.538l-0.044 0.002c-12.44 0.84-21.78-5.72-23.74-16.62s4.56-20.5 16.78-23.42c26.54-6.34 53.44-11.3 79.7-18.54 36.4-10 71.72-23.24 102.66-45.62 9.121-6.573 17.058-13.906 24.023-22.091l0.157-0.189c15.58-18.62 16.54-38 0.4-56.12-12.057-13.452-25.808-25.034-41.003-34.516l-0.797-0.464c-46.6-28.56-98.54-43.82-151.7-53.82-45.080-8.46-90.78-13.62-136.3-19.62-3.64-0.48-9.36 2.96-11.7 6.28-17.18 24.16-33.74 48.76-50.5 73.24-12.1 17.66-26.98 19.12-39.42 2-16.82-23.14-32.52-47.14-47.74-71.38-5.84-9.28-11.62-12.54-23.080-11.7-72 5.32-143.18 14.84-211.62 38.58-24 8.36-46.86 20.48-70 31.4-6.556 3.523-12.213 7.451-17.374 11.937l0.114-0.097c-38.44 30.36-38.58 60.76-0.26 91.66 33.62 27.12 72.98 42.4 113.62 54.9 69.1 21.3 140.12 32 212.14 36.16 28.92 1.7 58 1.9 86.92 2.86 0.049 0 0.107 0 0.165 0 4.502 0 8.893 0.473 13.126 1.373l-0.411-0.073c8.666 2.228 14.967 9.971 14.967 19.186 0 8.268-5.073 15.351-12.275 18.307l-0.132 0.048c-3.454 1.4-7.458 2.221-11.652 2.24h-0.008c-111.16 0.16-220.82-10.8-327.26-44.88-35.3-11.3-69.72-25.16-100-47.020-14.937-10.65-27.898-22.626-39.201-36.044l-0.259-0.316c-27.3-33.46-26.14-73.54 1.040-107.16 16.44-20.34 37.48-34.86 60.36-46.92 50.62-26.68 105.12-41.68 161.060-51.44 37.72-6.56 75.76-10.88 115.020-16.4zM517.1 726.68c2.74-3.7 4.56-6 6.22-8.44 22.44-32.64 44.72-65.42 67.32-98 22.82-32.84 46.32-65.18 68.86-98.2 20.62-30.26 40-61.4 60.56-91.66 48.42-71 56.94-146.22 18.26-223.020-40-79.34-108.18-120-195.8-127.58-124.28-10.8-245.26 76-257.34 206.26-4 43.84 3.6 85.68 27.84 123.34 19.64 30.52 40 60.6 59.58 91.16 10.96 17.1 20.5 35.12 31.5 52.18 26.92 41.7 54.36 83.040 81.48 124.6 10.42 15.92 20.42 32 31.52 49.36z"></path>
<path d="M638.4 990.16c-11.88-0.2-22-10.3-21.56-21.68 0.096-11.337 9.308-20.491 20.659-20.491 0.239 0 0.478 0.004 0.715 0.012l-0.035-0.001c11.871 0.289 21.394 9.938 21.48 21.832v0.008c-0.060 11.82-9.14 20.5-21.26 20.32z"></path>
<path d="M364 290.18c0.12-85.060 71.42-156.16 157.5-153.86 88.96 2.36 151.58 71.84 152.24 154.98 0.68 84.38-70.22 154.52-154.88 154.58-85 0.12-154.86-70.26-154.86-155.7zM519.52 178c-0.561-0.010-1.222-0.016-1.885-0.016-61.397 0-111.242 49.465-111.854 110.718v0.058c-1.020 63.32 47.74 114.52 110 115.58 63.64 1.1 114.5-47.5 116.46-109.4 2.26-68.32-55.22-119.38-112.72-116.94z"></path>
</svg>
