<!-- Generated by IcoMoon.io -->
<svg version="1.1" xmlns="http://www.w3.org/2000/svg" width="1024" height="1024" viewBox="0 0 1024 1024">
<title></title>
<g id="icomoon-ignore">
</g>
<path d="M495.25 266.667c-24.333 0-47.667 0-70.917 0-42.333 0.5-84.667 1.25-127 1.833-0.975 0.147-2.1 0.231-3.245 0.231-12.657 0-22.917-10.26-22.917-22.917 0-0.668 0.029-1.329 0.085-1.983l-0.006 0.085c-0.75-28.917-2.083-58.333-0.917-86.917 1.75-43.667 25-75.667 60.083-99.5 33.226-22 72.648-37.554 115.081-43.889l1.586-0.195c20.751-4.069 44.612-6.397 69.017-6.397 43.805 0 85.859 7.501 124.946 21.289l-2.63-0.808c30.406 10.069 56.322 26.686 77.11 48.274l0.057 0.059c17.644 18.514 28.5 43.635 28.5 71.292 0 0.102 0 0.205 0 0.307v-0.016c0 43.667 0.5 87.333 0.833 130.917 0 3.583 0 7.167 0.75 13.5 29 0 57.25 0 85.583 0 11.333 0 22.667 0.75 34 0 29.417-1.75 53.083 10.667 73.667 29.917 29.788 29.263 51.006 67.158 59.602 109.632l0.231 1.368c16.667 70.917 12.333 140.25-20.333 206.417-15 30.25-36.083 55.583-68 69-10.202 4.497-22.070 7.255-34.544 7.581l-0.123 0.003c-111 1.333-222 1.917-332.917 2.75-18 0-16.667-2.75-16.667 16.667 0 2.333 0 4.667 0 8.833h11.5l187.333-2.333c0.88-0.122 1.897-0.191 2.93-0.191 12.472 0 22.583 10.111 22.583 22.583 0 0.272-0.005 0.543-0.014 0.813l0.001-0.039c0.833 29.917 2.333 60 0.917 89.917-2.083 43.25-25 75-60.417 98.333-33.241 21.918-72.662 37.413-115.080 43.723l-1.587 0.194c-20.359 3.896-43.776 6.126-67.714 6.126-44.158 0-86.544-7.585-125.926-21.523l2.64 0.815c-30.024-10.128-55.627-26.545-76.291-47.79l-0.042-0.044c-17.849-18.677-28.835-44.044-28.835-71.976 0-0.184 0-0.368 0.001-0.552v0.028l-0.75-129.917c0-3.667 0-7.25-0.583-11.25-2.055-0.366-4.574-0.662-7.13-0.823l-0.204-0.010c-37.333-0.75-75-2.5-112-1.833-0.678 0.016-1.477 0.025-2.278 0.025-28.458 0-54.197-11.645-72.71-30.43l-0.012-0.012c-32-30.333-49.167-68.917-59.333-111.083-16.667-70.667-12.167-139.75 20.167-205.583 14.75-30 35.5-55.167 66.667-68.833 10.716-4.892 23.203-7.919 36.35-8.33l0.15-0.004c111-1.333 222-1.917 333.333-2.75 17.25 0 15.917 2.5 16-16.167-0.167-2.417-0.417-5.083-0.583-8.417zM310.5 227.667c68.583-1.25 133.833-2.167 199.083-3.75 17.667-0.417 26.667 6.75 26.667 24.083q0 28.5 0 56.917c0 19-8.333 27.083-27.75 27.25-116.667 0.667-234 1.833-351 1.667-0.919-0.043-1.996-0.068-3.080-0.068-22.435 0-42.393 10.605-55.135 27.074l-0.119 0.16c-9.554 11.777-17.909 25.151-24.516 39.495l-0.484 1.171c-12.47 29.248-19.72 63.274-19.72 98.993 0 17.694 1.779 34.973 5.168 51.667l-0.281-1.66c5.298 38.941 21.33 73.409 44.98 101.194l-0.23-0.277c12.641 15.95 32.012 26.089 53.752 26.089 0.322 0 0.643-0.002 0.963-0.007l-0.049 0.001c35.667-0.667 71.333 1.083 107 1.667 3.669-0.137 7.119-0.466 10.508-0.98l-0.508 0.063c0-33.833 0-67.167 0-100-0.001-0.165-0.002-0.36-0.002-0.555 0-21.979 7.735-42.151 20.632-57.943l-0.13 0.165c13.667-17.75 31.417-32.333 53.5-33.75 38.5-2.5 77.25-0.833 115.917-0.833 0.17-0.006 0.37-0.009 0.57-0.009 8.609 0 15.864 5.803 18.065 13.71l0.031 0.132c0.97 2.43 1.533 5.246 1.533 8.194 0 12.518-10.148 22.667-22.667 22.667-0.393 0-0.783-0.010-1.171-0.030l0.054 0.002q-48.5 0.833-97 0.917c-0.597-0.028-1.297-0.045-2-0.045-24.715 0-44.75 20.035-44.75 44.75 0 0.045 0 0.090 0 0.135v-0.007c0 95.333 0 190.667 0.5 286-0.038 0.804-0.059 1.747-0.059 2.696 0 20.562 10.146 38.755 25.706 49.844l0.187 0.127c15.246 11.448 32.66 21.36 51.273 28.938l1.561 0.562c32.53 11.773 70.075 18.579 109.209 18.579 28.999 0 57.126-3.738 83.923-10.758l-2.299 0.512c34.204-7.031 64.325-21.052 90.050-40.567l-0.55 0.4c20.403-14.96 33.501-38.841 33.501-65.781 0-1.836-0.061-3.658-0.181-5.464l0.013 0.245c-0.833-16.667-0.667-32.667-0.917-49 0-3.167-0.5-6.333-0.833-10.083-66.667 1.25-131.667 2.167-196.917 3.75-18.167 0-26.833-6.667-26.75-25s0-37.333 0-56 8.333-27.167 27.667-27.333c116.667-0.667 234-1.833 351-1.667 0.938 0.045 2.037 0.071 3.142 0.071 22.399 0 42.329-10.571 55.074-26.996l0.118-0.158c9.55-11.778 17.905-25.151 24.515-39.494l0.485-1.173c12.506-29.286 19.776-63.358 19.776-99.129 0-17.645-1.769-34.877-5.14-51.528l0.28 1.657c-5.285-38.903-21.287-73.343-44.898-101.112l0.231 0.279c-12.655-15.999-32.068-26.171-53.857-26.171-0.285 0-0.569 0.002-0.853 0.005h0.043c-35.667 0.667-71.333-1-106.917-1.667-3.728 0.136-7.236 0.465-10.683 0.98l0.517-0.064c0 34.083 0 67.75 0 101.333 0 0.108 0.001 0.235 0.001 0.362 0 35.748-20.334 66.748-50.067 82.062l-0.517 0.242c-21.083 12.083-44.333 13-67.833 12.333-14.917-0.417-24.5-8.333-25-21.5 0-0.001 0-0.002 0-0.004 0-13.209 10.708-23.917 23.917-23.917 0.147 0 0.293 0.001 0.439 0.004h-0.022c3.278-0.239 7.102-0.375 10.958-0.375s7.68 0.136 11.468 0.403l-0.51-0.029c0.473 0.015 1.029 0.023 1.587 0.023 29.459 0 53.383-23.699 53.746-53.073v-0.034q-1.833-135.417-0.583-270.917c0.062-1.183 0.098-2.569 0.098-3.963 0-30.194-16.693-56.49-41.354-70.161l-0.411-0.209c-6.224-4.003-13.471-7.928-21.011-11.319l-1.073-0.431c-63.75-27.333-129.75-29.917-196.917-16.667-37.083 6.209-69.988 20.629-97.944 41.349l0.61-0.432c-15.583 12-29.917 26.167-31.75 46.667-2.583 27.583-2.5 55.417-3.583 84.5z"></path>
<path d="M448.833 159.75c0.001 0.096 0.001 0.21 0.001 0.324 0 24.669-19.998 44.667-44.667 44.667s-44.667-19.998-44.667-44.667c0-24.346 19.478-44.143 43.701-44.656l0.048-0.001c0.273-0.006 0.595-0.009 0.918-0.009 24.555 0 44.482 19.814 44.665 44.325v0.017z"></path>
<path d="M666.667 850c0 0.072 0.001 0.157 0.001 0.242 0 24.669-19.998 44.667-44.667 44.667s-44.667-19.998-44.667-44.667c0-24.375 19.525-44.191 43.789-44.658l0.044-0.001c0.248-0.005 0.541-0.008 0.834-0.008 24.584 0 44.529 19.86 44.666 44.411v0.013z"></path>
<path d="M542.333 538c-0.074 0.001-0.161 0.001-0.249 0.001-15.464 0-28-12.536-28-28s12.536-28 28-28c15.376 0 27.857 12.393 27.999 27.735v0.014c0 0.050 0.001 0.109 0.001 0.169 0 15.393-12.384 27.893-27.733 28.081h-0.018z"></path>
</svg>
