<!-- Generated by IcoMoon.io -->
<svg version="1.1" xmlns="http://www.w3.org/2000/svg" width="1024" height="1024" viewBox="0 0 1024 1024">
<title></title>
<g id="icomoon-ignore">
</g>
<path d="M610.42 844.34v44c12.66 2.8 25.38 3.46 36.16 8.36 35.2 16 54.84 45.38 64.42 81.82 3.74 14.26-7.020 27.16-22.8 29.3-2.22 0.232-4.796 0.365-7.404 0.365-0.913 0-1.822-0.016-2.727-0.048l0.131 0.004h-330c-0.745 0.027-1.619 0.042-2.498 0.042-2.282 0-4.54-0.102-6.77-0.303l0.288 0.021c-14-1.72-22.22-12.62-18.94-26.22 6-24.96 16.2-48 34-66.94 14.24-15.2 30.86-25.24 52.72-23.72 2.715-0.031 5.344-0.314 7.89-0.825l-0.27 0.045v-44.5c-10-0.48-19.16-1.32-28.32-1.34-75.66-0.16-151.3 0.28-226.94-0.44-32.44-0.3-60.28-11.5-75.86-42.5-3.338-6.696-5.352-14.566-5.499-22.891l-0.001-0.049q-2.52-200.52-4.36-400.84-0.66-58.98-2-118c-1.2-50.36 27.38-86.5 74.58-92.82 9.78-1.3 19.88-0.18 31.4-0.18 0-4.84 0-8.38 0-12-0.48-30.64-1.080-61.3-1.46-92-0.28-22.68 10-33.14 32.7-33.22q220.92-0.88 441.84-1.42c55.32 0 110.64 0.86 166 1.38 23.3 0.42 33.48 10.58 33.3 33.84-0.38 30.32-0.98 60.64-1.46 90.96 0 3.58 0 7.16 0 12.42 11.040 0 21.060-1.020 30.78 0.18 44.34 5.52 73.14 37.060 74.7 83.32 0.9 26.92-1.060 54-1.36 80.92q-2.56 214.44-4.78 428.94c-0.14 14.22 1.9 28.58-5.34 42-16.24 30.14-43.34 41.64-75.38 42-75.3 0.8-150.62 0.34-226 0.4zM219.86 208.84c1.64 156.22 3.26 311.24 4.9 466.18h576.52c1.62-155.86 3.22-310.88 4.84-466.18zM904.16 718.42h-783.28c0 18-0.48 35.18 0.14 52.4 0.64 18.46 5.86 24.42 23.78 28.96 4.444 1.131 9.546 1.78 14.8 1.78v0q126.98 0.28 254 0.26 226.46 0 452.96-0.46c8.96 0 18.32-3.1 26.68-6.66 4.54-2 10.26-7.76 10.48-12 1.040-21.22 0.44-42.46 0.44-64.28zM806.4 71.5q-293.72-3.3-586.94 0c0 29.16 0.3 56.42-0.18 83.66-0.16 8.7 2.34 11.3 11.24 11.2q92.46-0.96 184.9-0.92 163.44 0 326.84 0.62c18.66 0 37.34 0.3 56-0.16 2.76 0 7.78-3.54 7.82-5.52 0.48-28.88 0.32-57.82 0.32-88.88zM177.78 208c-9.8 0.52-18 1.32-26.26 1.34-22.86 0-38.16 21.82-37.040 43.62 0.42 8-0.1 16 0 24q2 184.38 4.24 368.72c0.12 9.56 0.82 19.12 1.28 29.22h62.56c-1.6-155.4-3.18-310.16-4.78-466.9zM905.78 674.92c0.26-4.12 0.62-7.68 0.66-11.24q2.56-197.34 5.020-394.68c0.1-8.3 0.88-16.82-0.56-24.9-5.080-28.18-24.38-40-62.78-34q-2.38 232.22-4.74 464.92zM370.4 966.48h291.3c-11-23.62-30.32-35.12-49.58-34.84-66.62 0.92-133.26 0.38-199.88 0.42-20.24-0.060-36.4 13.1-41.84 34.42zM568.54 890.84c0-13.3-0.48-24.9 0.16-36.44 0.46-7.78-2.56-9.54-9.72-9.46-31.24 0.3-62.5 0-93.74 0.16-2.84 0-5.68 0.56-9.020 0.9 0 12.7 0.32 24.62-0.12 36.52-0.24 6.78 2.62 8.5 8.84 8.4 16.28-0.28 32.58 0 48.86 0z"></path>
<path d="M342.22 433c22.92 22.18 45.18 43.68 67.38 65.24 14 13.62 16 25.36 6 35.36-9.64 9.7-21.2 8.14-34.86-5q-39.62-38-79.060-76.34c-14.76-14.32-14.46-25.38 0.82-39.58 24.66-22.88 49-46.1 74.2-68.34 5.74-5.080 14.5-9.38 21.76-9.22 5.6 0.12 12.8 6.8 16 12.42 4.48 7.72 1.68 16.34-5 22.68-14.48 13.76-29.12 27.36-43.72 40.98-7.48 7.040-15.080 14-23.52 21.8z"></path>
<path d="M687.6 436.2c-20.36-18.88-40.88-37.86-61.34-56.9-13.18-12.24-15.66-24.12-7.14-33.74 9.020-10.16 21.3-8.94 34.9 3.64q37.42 34.62 74.7 69.34c13.060 12.18 13.38 23.46 0.54 36q-40.72 39.84-81.88 79.2c-11.84 11.34-23.72 12.36-32.6 3.36s-7.54-21.34 4.54-33.16c15.24-14.92 30.74-29.54 46-44.48 7.3-7.24 14.26-14.88 22.28-23.26z"></path>
<path d="M577.6 348.34c-1.104 4.307-2.26 7.853-3.608 11.303l0.228-0.663q-37.38 86.58-75.020 173.020c-1.817 4.233-4.037 7.883-6.69 11.169l0.070-0.089c-3.74 4.321-9.233 7.039-15.361 7.039-11.2 0-20.28-9.080-20.28-20.28 0-1.588 0.182-3.133 0.528-4.616l-0.027 0.137c1.911-6.56 4.054-12.12 6.597-17.452l-0.297 0.692c23.64-54.62 47.2-109.3 71.3-163.74 2.78-6.28 7.74-12.98 13.52-16.3 12.9-7.36 28.72 3.1 29.040 19.78z"></path>
<path d="M510.4 743.84c0.039 0 0.084 0 0.13 0 9.997 0 18.1 8.104 18.1 18.1 0 9.951-8.030 18.026-17.963 18.1h-0.007c-0.073 0.001-0.159 0.002-0.246 0.002-10.034 0-18.198-8.006-18.454-17.978v-0.024c-0.001-0.061-0.001-0.133-0.001-0.205 0-9.941 8.059-18 18-18 0.155 0 0.31 0.002 0.464 0.006h-0.023z"></path>
<path d="M652.12 99.12q42.44 0 84.9 0c0.286-0.004 0.623-0.006 0.961-0.006 4.241 0 8.407 0.322 12.475 0.943l-0.456-0.057c9.219 1.323 16.314 8.878 16.917 18.202l0.003 0.058c0.043 0.48 0.067 1.039 0.067 1.603 0 8.926-6.097 16.428-14.354 18.568l-0.133 0.029c-3.462 1.041-7.44 1.64-11.559 1.64-0.071 0-0.142 0-0.212-0.001h0.011q-88.88 0.32-177.8 0.44c-1.66 0-3.32 0-4.98-0.14-12.5-1.060-20.38-8.94-20.32-20.28s8-19.64 20.64-20c23.3-0.56 46.6-0.34 69.9-0.42h24z"></path>
<path d="M347.52 118c-0.19 9.684-8.085 17.461-17.797 17.461-0.071 0-0.143 0-0.214-0.001h0.011c-9.527-0.235-17.16-8.014-17.16-17.575 0-9.709 7.871-17.58 17.58-17.58s17.58 7.871 17.58 17.58c0 0.040 0 0.081 0 0.121v-0.006z"></path>
<path d="M390.18 102.38c0.030 0 0.065 0 0.101 0 9.709 0 17.58 7.871 17.58 17.58s-7.871 17.58-17.58 17.58c-0.416 0-0.828-0.014-1.236-0.043l0.055 0.003c-9.188-0.637-16.399-8.247-16.399-17.54 0-9.674 7.813-17.522 17.474-17.58h0.005z"></path>
<path d="M267.74 99.5c0.039 0 0.084 0 0.13 0 9.621 0 17.42 7.799 17.42 17.42s-7.799 17.42-17.42 17.42c-9.417 0-17.088-7.472-17.41-16.81l-0.001-0.029c-0.005-0.155-0.008-0.338-0.008-0.521 0-9.586 7.717-17.37 17.278-17.479h0.010z"></path>
</svg>
